<svg width="125" height="125" viewBox="0 0 125 125" fill="none" xmlns="http://www.w3.org/2000/svg">
<path d="M21.4187 53.1895L10.9574 52.8716V44.2812H30.8548L21.4187 53.1895Z" fill="black"/>
<path d="M39.8451 68.3815C39.8451 70.9136 39.1429 73.1432 37.7385 75.0653C36.3341 76.9925 34.4427 78.4994 32.0644 79.5963C29.6913 80.688 27.0261 81.2365 24.0789 81.2365C20.5064 81.2365 17.4002 80.5445 14.7657 79.1555C12.1312 77.7716 9.87595 75.5829 8 72.5999L15.8575 67.2385C16.4469 68.2432 17.1594 69.1043 17.9897 69.8116C18.8252 70.524 19.7427 71.0879 20.7473 71.503C21.7519 71.9182 22.8642 72.1283 24.0789 72.1283C25.1553 72.1283 26.1086 71.9899 26.944 71.7131C27.7744 71.4364 28.4459 71.0109 28.9482 70.4369C29.4505 69.8628 29.7016 69.1606 29.7016 68.3302C29.7016 67.4281 29.4248 66.7106 28.8661 66.1724C28.3074 65.6342 27.6104 65.2447 26.7596 65.0038C25.9087 64.7628 24.981 64.6399 23.9764 64.6399C23.4895 64.6399 22.9718 64.6809 22.4131 64.768C21.8596 64.8551 21.3367 64.9781 20.8498 65.1319C20.3629 65.2908 19.9119 65.4908 19.4967 65.7317L17.103 59.9039L23.9968 53.2765H23.9917L33.5099 44.2914H36.7903L38.6508 48.7149L29.7375 57.1771C30.4192 57.3207 31.0958 57.5154 31.757 57.7717C33.2998 58.3611 34.6786 59.1658 35.8933 60.1909C37.1081 61.216 38.0716 62.4308 38.7841 63.8352C39.4914 65.2396 39.8502 66.7567 39.8502 68.3867L39.8451 68.3815Z" fill="black"/>
<path d="M117 44.2863H103.299L95.8775 53.7584L88.4557 44.2863H74.75L89.0247 62.4974L74.75 80.7137H88.4557L95.8775 71.2417L103.299 80.7137H117L102.73 62.4974L117 44.2863Z" fill="black"/>
<path d="M65.068 80.7034C63.4637 81.0571 61.7107 81.2314 59.8143 81.2314C57.9178 81.2314 56.0932 81.052 54.453 80.6932C52.8846 80.3549 51.4545 79.8526 50.1577 79.1812C50.0347 79.1196 49.9168 79.0581 49.7938 78.9914C47.0721 77.4999 45.0117 75.3473 43.6278 72.5385C42.2387 69.7297 41.5468 66.3826 41.5468 62.4975C41.5468 58.6123 42.167 55.2294 43.6278 52.4565C43.8174 52.0977 44.0174 51.7542 44.2224 51.4211C47.1388 46.762 53.1921 45.0962 58.0152 47.741C58.0357 47.7512 58.0562 47.7615 58.0767 47.7769C58.6712 48.1049 59.2197 48.4637 59.7373 48.8686C61.2596 50.0372 62.4539 51.5236 63.3611 53.3586C63.3611 53.3586 63.3611 53.3637 63.3611 53.3688C62.3565 52.7948 61.1726 52.5129 59.8143 52.5129C58.3843 52.5129 57.1387 52.8102 56.088 53.4099C56.0931 53.3996 56.0983 53.3842 56.1085 53.3688C55.3653 53.7891 54.7195 54.3581 54.1659 55.0911C52.8282 56.8081 52.1619 59.2786 52.1619 62.5077C52.1619 63.3022 52.208 64.0453 52.2951 64.7424C52.5155 67.6896 53.1818 70.2935 54.2941 72.5487C55.6831 75.3575 57.7179 77.5102 60.4088 79.0017C61.7825 79.7654 63.3201 80.3344 65.0115 80.7034C65.0269 80.7034 65.0475 80.7086 65.0629 80.7137L65.068 80.7034Z" fill="black"/>
<path d="M54.3964 44.2915C56.0007 43.9378 57.7536 43.7635 59.6501 43.7635C61.5465 43.7635 63.3712 43.9429 65.0114 44.3017C66.5798 44.64 68.0099 45.1423 69.3066 45.8137C69.4297 45.8752 69.5475 45.9368 69.6705 46.0034C72.3922 47.495 74.4527 49.6476 75.8366 52.4564C77.2256 55.2652 77.9176 58.6123 77.9176 62.4974C77.9176 66.3826 77.2974 69.7655 75.8366 72.5384C75.6469 72.8972 75.447 73.2406 75.2419 73.5738C72.3255 78.2329 66.2723 79.8987 61.4491 77.2539C61.4286 77.2437 61.4082 77.2334 61.3877 77.218C60.7931 76.89 60.2447 76.5312 59.727 76.1263C58.2047 74.9577 57.0104 73.4713 56.1032 71.6363C56.1032 71.6363 56.1032 71.6312 56.1032 71.6261C57.1078 72.2001 58.2918 72.482 59.6501 72.482C61.0801 72.482 62.3256 72.1847 63.3763 71.585C63.3712 71.5953 63.3661 71.6107 63.3558 71.6261C64.099 71.2058 64.7449 70.6368 65.2984 69.9038C66.6362 68.1868 67.3025 65.7163 67.3025 62.4872C67.3025 61.6927 67.2563 60.9496 67.1692 60.2525C66.9488 57.3053 66.2825 54.7014 65.1703 52.4462C63.7813 49.6374 61.7464 47.4847 59.0555 45.9932C57.6819 45.2295 56.1442 44.6605 54.4528 44.2915C54.4374 44.2915 54.4169 44.2863 54.4015 44.2812L54.3964 44.2915Z" fill="black"/>
</svg>
