<svg width="215" height="215" viewBox="0 0 215 215" fill="none" xmlns="http://www.w3.org/2000/svg">
<rect width="215" height="215" rx="20" fill="black"/>
<path d="M51.5926 94.8286L37.3551 94.396V82.7046H64.4281L51.5926 94.8286Z" fill="white"/>
<path d="M76.6636 115.504C76.6636 118.95 75.7079 121.985 73.7965 124.601C71.8852 127.224 69.311 129.275 66.0743 130.768C62.8445 132.253 59.2172 133 55.2061 133C50.344 133 46.1166 132.058 42.531 130.168C38.9455 128.284 35.8762 125.305 33.323 121.245L44.017 113.949C44.8192 115.316 45.7887 116.488 46.9188 117.451C48.0559 118.42 49.3046 119.188 50.6719 119.753C52.0391 120.318 53.5529 120.604 55.2061 120.604C56.671 120.604 57.9684 120.415 59.1055 120.039C60.2356 119.662 61.1495 119.083 61.8331 118.302C62.5168 117.52 62.8585 116.565 62.8585 115.435C62.8585 114.207 62.4818 113.23 61.7214 112.498C60.961 111.765 60.0124 111.235 58.8545 110.907C57.6965 110.579 56.4337 110.412 55.0665 110.412C54.4038 110.412 53.6994 110.468 52.939 110.586C52.1856 110.705 51.4741 110.872 50.8114 111.082C50.1487 111.298 49.5347 111.57 48.9697 111.898L45.712 103.966L55.0944 94.9468H55.0874L68.0415 82.7183H72.5059L75.0382 88.7384L62.9073 100.255C63.835 100.451 64.756 100.716 65.6558 101.065C67.7555 101.867 69.6319 102.962 71.2852 104.357C72.9384 105.752 74.25 107.406 75.2196 109.317C76.1823 111.228 76.6706 113.293 76.6706 115.511L76.6636 115.504Z" fill="white"/>
<path d="M181.677 82.7114H163.031L152.923 95.6027L142.822 82.7114H124.176L143.603 107.496L124.176 132.288H142.822L152.923 119.397L163.031 132.288H181.677L162.249 107.496L181.677 82.7114Z" fill="#E9FF7B"/>
<path d="M110.991 132.275C108.808 132.756 106.422 132.993 103.841 132.993C101.26 132.993 98.7768 132.749 96.5445 132.261C94.4099 131.8 92.4636 131.117 90.6987 130.203C90.5313 130.119 90.3709 130.035 90.2035 129.945C86.4994 127.915 83.6951 124.985 81.8116 121.162C79.9212 117.34 78.9794 112.784 78.9794 107.497C78.9794 102.209 79.8235 97.6049 81.8116 93.831C82.0697 93.3427 82.3417 92.8753 82.6207 92.4219C86.59 86.0809 94.8285 83.8138 101.393 87.4133C101.421 87.4273 101.448 87.4413 101.476 87.4622C102.285 87.9087 103.032 88.3969 103.736 88.948C105.808 90.5385 107.434 92.5614 108.668 95.0588C108.668 95.0588 108.668 95.0658 108.668 95.0727C107.301 94.2914 105.69 93.9078 103.841 93.9078C101.895 93.9078 100.2 94.3124 98.7698 95.1286C98.7767 95.1146 98.7837 95.0937 98.7977 95.0727C97.7862 95.6447 96.9072 96.4191 96.1539 97.4167C94.3332 99.7536 93.4262 103.116 93.4262 107.511C93.4262 108.592 93.489 109.603 93.6076 110.552C93.9075 114.563 94.8145 118.107 96.3282 121.176C98.2187 124.999 100.988 127.929 104.65 129.959C106.52 130.998 108.613 131.772 110.915 132.275C110.935 132.275 110.963 132.282 110.984 132.289L110.991 132.275Z" fill="white"/>
<path d="M96.4747 82.7185C98.6581 82.2372 101.044 82 103.625 82C106.206 82 108.689 82.2442 110.921 82.7325C113.056 83.1929 115.002 83.8765 116.767 84.7903C116.935 84.874 117.095 84.9578 117.263 85.0485C120.967 87.0784 123.771 90.0082 125.654 93.8309C127.545 97.6536 128.486 102.209 128.486 107.497C128.486 112.784 127.643 117.388 125.654 121.162C125.396 121.65 125.124 122.118 124.845 122.571C120.876 128.912 112.638 131.179 106.073 127.58C106.045 127.566 106.017 127.552 105.99 127.531C105.18 127.084 104.434 126.596 103.729 126.045C101.658 124.455 100.032 122.432 98.7977 119.934C98.7977 119.934 98.7977 119.927 98.7977 119.92C100.165 120.702 101.776 121.085 103.625 121.085C105.571 121.085 107.266 120.681 108.696 119.865C108.689 119.879 108.682 119.899 108.668 119.92C109.68 119.348 110.559 118.574 111.312 117.576C113.133 115.24 114.04 111.877 114.04 107.483C114.04 106.401 113.977 105.39 113.858 104.441C113.558 100.43 112.652 96.8863 111.138 93.8169C109.247 89.9942 106.478 87.0645 102.816 85.0345C100.946 83.9951 98.8535 83.2208 96.5515 82.7185C96.5306 82.7185 96.5026 82.7115 96.4817 82.7046L96.4747 82.7185Z" fill="white"/>
</svg>
