<svg width="209" height="48" viewBox="0 0 209 48" fill="none" xmlns="http://www.w3.org/2000/svg">
<path d="M30.144 38.8481H12.352L9.408 47.3601H0L16.064 2.6241H26.496L42.56 47.3601H33.088L30.144 38.8481ZM27.712 31.6801L21.248 12.9921L14.784 31.6801H27.712ZM51.7645 2.68811V47.3601H42.8045V2.68811H51.7645ZM79.771 47.8081C76.6563 47.8081 73.8403 47.2748 71.323 46.2081C68.8483 45.1414 66.8857 43.6054 65.435 41.6001C63.9843 39.5948 63.2377 37.2268 63.195 34.4961H72.795C72.923 36.3308 73.563 37.7814 74.715 38.8481C75.9097 39.9148 77.531 40.4481 79.579 40.4481C81.6697 40.4481 83.3123 39.9574 84.507 38.9761C85.7017 37.9521 86.299 36.6294 86.299 35.0081C86.299 33.6854 85.8937 32.5974 85.083 31.7441C84.2723 30.8908 83.2483 30.2294 82.011 29.7601C80.8163 29.2481 79.1523 28.6934 77.019 28.0961C74.1177 27.2428 71.7497 26.4108 69.915 25.6001C68.123 24.7468 66.5657 23.4881 65.243 21.8241C63.963 20.1174 63.323 17.8561 63.323 15.0401C63.323 12.3948 63.9843 10.0908 65.307 8.12811C66.6297 6.16544 68.4857 4.67211 70.875 3.64811C73.2643 2.58144 75.995 2.04811 79.067 2.04811C83.675 2.04811 87.4083 3.17877 90.267 5.44011C93.1683 7.65877 94.7683 10.7734 95.067 14.7841H85.211C85.1257 13.2481 84.4643 11.9894 83.227 11.0081C82.0323 9.98411 80.4323 9.47211 78.427 9.47211C76.6777 9.47211 75.2697 9.92011 74.203 10.8161C73.179 11.7121 72.667 13.0134 72.667 14.7201C72.667 15.9148 73.051 16.9174 73.819 17.7281C74.6297 18.4961 75.611 19.1361 76.763 19.6481C77.9577 20.1174 79.6217 20.6721 81.755 21.3121C84.6563 22.1654 87.0243 23.0188 88.859 23.8721C90.6937 24.7254 92.2723 26.0054 93.595 27.7121C94.9177 29.4188 95.579 31.6588 95.579 34.4321C95.579 36.8214 94.9603 39.0401 93.723 41.0881C92.4857 43.1361 90.6723 44.7788 88.283 46.0161C85.8937 47.2108 83.0563 47.8081 79.771 47.8081ZM95.283 29.5041C95.283 25.9201 95.987 22.7414 97.395 19.9681C98.8457 17.1948 100.787 15.0614 103.219 13.5681C105.694 12.0748 108.446 11.3281 111.475 11.3281C114.12 11.3281 116.424 11.8614 118.387 12.9281C120.392 13.9948 121.992 15.3388 123.187 16.9601V11.9041H132.211V47.3601H123.187V42.1761C122.035 43.8401 120.435 45.2268 118.387 46.3361C116.382 47.4028 114.056 47.9361 111.411 47.9361C108.424 47.9361 105.694 47.1681 103.219 45.6321C100.787 44.0961 98.8457 41.9414 97.395 39.1681C95.987 36.3521 95.283 33.1308 95.283 29.5041ZM123.187 29.6321C123.187 27.4561 122.76 25.6001 121.907 24.0641C121.054 22.4854 119.902 21.2908 118.451 20.4801C117 19.6268 115.443 19.2001 113.779 19.2001C112.115 19.2001 110.579 19.6054 109.171 20.4161C107.763 21.2268 106.611 22.4214 105.715 24.0001C104.862 25.5361 104.435 27.3708 104.435 29.5041C104.435 31.6374 104.862 33.5148 105.715 35.1361C106.611 36.7148 107.763 37.9308 109.171 38.7841C110.622 39.6374 112.158 40.0641 113.779 40.0641C115.443 40.0641 117 39.6588 118.451 38.8481C119.902 37.9948 121.054 36.8001 121.907 35.2641C122.76 33.6854 123.187 31.8081 123.187 29.6321ZM144.162 0.000106812V47.3601H135.202V0.000106812H144.162ZM180.215 28.8641C180.215 30.1441 180.129 31.2961 179.959 32.3201H154.039C154.252 34.8801 155.148 36.8854 156.727 38.3361C158.305 39.7868 160.247 40.5121 162.551 40.5121C165.879 40.5121 168.247 39.0828 169.655 36.2241H179.319C178.295 39.6374 176.332 42.4534 173.431 44.6721C170.529 46.8481 166.967 47.9361 162.743 47.9361C159.329 47.9361 156.257 47.1894 153.527 45.6961C150.839 44.1601 148.727 42.0054 147.191 39.2321C145.697 36.4588 144.951 33.2588 144.951 29.6321C144.951 25.9628 145.697 22.7414 147.191 19.9681C148.684 17.1948 150.775 15.0614 153.463 13.5681C156.151 12.0748 159.244 11.3281 162.743 11.3281C166.113 11.3281 169.121 12.0534 171.767 13.5041C174.455 14.9548 176.524 17.0241 177.975 19.7121C179.468 22.3574 180.215 25.4081 180.215 28.8641ZM170.935 26.3041C170.892 24.0001 170.06 22.1654 168.439 20.8001C166.817 19.3921 164.833 18.6881 162.487 18.6881C160.268 18.6881 158.391 19.3708 156.855 20.7361C155.361 22.0588 154.444 23.9148 154.103 26.3041H170.935ZM194.562 47.9361C191.661 47.9361 189.058 47.4241 186.754 46.4001C184.45 45.3334 182.616 43.9041 181.25 42.1121C179.928 40.3201 179.202 38.3361 179.074 36.1601H188.098C188.269 37.5254 188.93 38.6561 190.082 39.5521C191.277 40.4481 192.749 40.8961 194.498 40.8961C196.205 40.8961 197.528 40.5548 198.466 39.8721C199.448 39.1894 199.938 38.3148 199.938 37.2481C199.938 36.0961 199.341 35.2428 198.146 34.6881C196.994 34.0908 195.138 33.4508 192.578 32.7681C189.933 32.1281 187.757 31.4668 186.05 30.7841C184.386 30.1014 182.936 29.0561 181.698 27.6481C180.504 26.2401 179.906 24.3414 179.906 21.9521C179.906 19.9894 180.461 18.1974 181.57 16.5761C182.722 14.9548 184.344 13.6748 186.434 12.7361C188.568 11.7974 191.064 11.3281 193.922 11.3281C198.146 11.3281 201.517 12.3948 204.034 14.5281C206.552 16.6188 207.938 19.4561 208.194 23.0401H199.618C199.49 21.6321 198.893 20.5228 197.826 19.7121C196.802 18.8588 195.416 18.4321 193.666 18.4321C192.045 18.4321 190.786 18.7308 189.89 19.3281C189.037 19.9254 188.61 20.7574 188.61 21.8241C188.61 23.0188 189.208 23.9361 190.402 24.5761C191.597 25.1734 193.453 25.7921 195.97 26.4321C198.53 27.0721 200.642 27.7334 202.306 28.4161C203.97 29.0988 205.4 30.1654 206.594 31.6161C207.832 33.0241 208.472 34.9014 208.514 37.2481C208.514 39.2961 207.938 41.1308 206.786 42.7521C205.677 44.3734 204.056 45.6534 201.922 46.5921C199.832 47.4881 197.378 47.9361 194.562 47.9361Z" fill="black"/>
</svg>
