<svg width="630" height="48" viewBox="0 0 630 48" fill="none" xmlns="http://www.w3.org/2000/svg">
<path d="M5.29289e-05 47.1818V0.636307H31.7728V9.77267H11.2501V19.3181H29.7501V28.4772H11.2501V47.1818H5.29289e-05ZM59.8366 0.636307H71.0639V30.659C71.0639 34.1287 70.2382 37.1515 68.5866 39.7272C66.9351 42.2878 64.6321 44.2727 61.6776 45.6818C58.723 47.0757 55.2912 47.7727 51.3821 47.7727C47.4276 47.7727 43.973 47.0757 41.0185 45.6818C38.0639 44.2727 35.7685 42.2878 34.1321 39.7272C32.4957 37.1515 31.6776 34.1287 31.6776 30.659V0.636307H42.9276V29.6818C42.9276 31.2878 43.276 32.7196 43.973 33.9772C44.6851 35.2348 45.6776 36.2196 46.9503 36.9318C48.223 37.6439 49.7003 37.9999 51.3821 37.9999C53.0639 37.9999 54.5336 37.6439 55.7912 36.9318C57.0639 36.2196 58.0563 35.2348 58.7685 33.9772C59.4806 32.7196 59.8366 31.2878 59.8366 29.6818V0.636307ZM111.969 0.636307V47.1818H102.423L83.9005 20.3181H83.605V47.1818H72.355V0.636307H82.0369L100.355 27.4545H100.741V0.636307H111.969ZM130.487 47.1818H113.283V0.636307H130.464C135.207 0.636307 139.29 1.56813 142.714 3.43176C146.154 5.28025 148.805 7.94691 150.669 11.4318C152.533 14.9015 153.464 19.053 153.464 23.8863C153.464 28.7348 152.533 32.9015 150.669 36.3863C148.82 39.8712 146.176 42.5454 142.737 44.409C139.298 46.2575 135.214 47.1818 130.487 47.1818ZM124.533 37.5909H130.055C132.661 37.5909 134.866 37.1515 136.669 36.2727C138.487 35.3787 139.858 33.9318 140.783 31.9318C141.722 29.9166 142.192 27.2348 142.192 23.8863C142.192 20.5378 141.722 17.8712 140.783 15.8863C139.843 13.8863 138.457 12.4469 136.623 11.5681C134.805 10.6742 132.563 10.2272 129.896 10.2272H124.533V37.5909ZM154.273 47.1818V0.636307H173.5C176.985 0.636307 179.992 1.26509 182.523 2.52267C185.068 3.76509 187.03 5.55297 188.409 7.88631C189.788 10.2045 190.477 12.9545 190.477 16.1363C190.477 19.3636 189.773 22.106 188.363 24.3636C186.954 26.606 184.954 28.3181 182.363 29.4999C179.773 30.6666 176.704 31.2499 173.159 31.2499H161V22.3863H171.068C172.765 22.3863 174.182 22.1666 175.318 21.7272C176.47 21.2727 177.341 20.5909 177.932 19.6818C178.523 18.7575 178.818 17.5757 178.818 16.1363C178.818 14.6969 178.523 13.5075 177.932 12.5681C177.341 11.6136 176.47 10.9015 175.318 10.4318C174.166 9.94691 172.75 9.70449 171.068 9.70449H165.523V47.1818H154.273ZM180.477 25.909L192.068 47.1818H179.795L168.432 25.909H180.477ZM200.956 47.1818H188.865L204.569 0.636307H219.547L235.251 47.1818H223.16L212.228 12.3636H211.865L200.956 47.1818ZM199.342 28.8636H224.615V37.409H199.342V28.8636ZM245.753 0.636307V47.1818H234.503V0.636307H245.753ZM272.214 14.5909C272.063 12.9242 271.388 11.6287 270.191 10.7045C269.01 9.7651 267.32 9.2954 265.123 9.2954C263.669 9.2954 262.457 9.48479 261.487 9.86358C260.517 10.2424 259.79 10.7651 259.305 11.4318C258.82 12.0833 258.57 12.8333 258.555 13.6818C258.525 14.3787 258.661 14.9924 258.964 15.5227C259.282 16.053 259.737 16.5227 260.328 16.9318C260.934 17.3257 261.661 17.6742 262.51 17.9772C263.358 18.2802 264.313 18.5454 265.373 18.7727L269.373 19.6818C271.676 20.1818 273.707 20.8484 275.464 21.6818C277.237 22.5151 278.722 23.5075 279.919 24.659C281.131 25.8105 282.047 27.1363 282.669 28.6363C283.29 30.1363 283.608 31.8181 283.623 33.6818C283.608 36.6212 282.866 39.1439 281.396 41.2499C279.926 43.356 277.813 44.9696 275.055 46.0909C272.313 47.2121 269.002 47.7727 265.123 47.7727C261.229 47.7727 257.835 47.1893 254.941 46.0227C252.047 44.856 249.797 43.0833 248.191 40.7045C246.585 38.3257 245.76 35.3181 245.714 31.6818H256.487C256.578 33.1818 256.979 34.4318 257.691 35.4318C258.404 36.4318 259.381 37.1893 260.623 37.7045C261.881 38.2196 263.335 38.4772 264.987 38.4772C266.502 38.4772 267.79 38.2727 268.851 37.8636C269.926 37.4545 270.752 36.8863 271.328 36.159C271.904 35.4318 272.199 34.5984 272.214 33.659C272.199 32.7802 271.926 32.0302 271.396 31.409C270.866 30.7727 270.047 30.2272 268.941 29.7727C267.851 29.303 266.457 28.8712 264.76 28.4772L259.896 27.3409C255.866 26.4166 252.691 24.9242 250.373 22.8636C248.055 20.7878 246.904 17.9848 246.919 14.4545C246.904 11.5757 247.676 9.05297 249.237 6.88631C250.797 4.71964 252.957 3.03025 255.714 1.81813C258.472 0.606004 261.616 -5.72205e-05 265.146 -5.72205e-05C268.752 -5.72205e-05 271.881 0.613579 274.532 1.84085C277.199 3.05297 279.267 4.75752 280.737 6.95449C282.207 9.15146 282.957 11.6969 282.987 14.5909H272.214ZM294.795 0.636307V47.1818H283.545V0.636307H294.795ZM335.711 0.636307V47.1818H326.166L307.643 20.3181H307.348V47.1818H296.098V0.636307H305.779L324.098 27.4545H324.484V0.636307H335.711ZM367.571 15.8409C367.313 14.8863 366.934 14.0454 366.434 13.3181C365.934 12.5757 365.321 11.9469 364.593 11.4318C363.866 10.9166 363.033 10.5302 362.093 10.2727C361.154 9.99994 360.124 9.86358 359.002 9.86358C356.745 9.86358 354.79 10.409 353.139 11.4999C351.502 12.5909 350.237 14.1818 349.343 16.2727C348.449 18.3484 348.002 20.8712 348.002 23.8409C348.002 26.8257 348.434 29.3712 349.298 31.4772C350.161 33.5833 351.411 35.1893 353.048 36.2954C354.684 37.4015 356.669 37.9545 359.002 37.9545C361.063 37.9545 362.805 37.6212 364.23 36.9545C365.669 36.2727 366.76 35.3106 367.502 34.0681C368.245 32.8257 368.616 31.3636 368.616 29.6818L370.707 29.9318H359.389V21.7272H379.457V27.8863C379.457 32.053 378.571 35.6212 376.798 38.5909C375.04 41.5606 372.616 43.8409 369.525 45.4318C366.449 47.0227 362.911 47.8181 358.911 47.8181C354.472 47.8181 350.571 46.856 347.207 44.9318C343.843 43.0075 341.222 40.2651 339.343 36.7045C337.464 33.1287 336.525 28.8863 336.525 23.9772C336.525 20.159 337.093 16.7727 338.23 13.8181C339.366 10.8484 340.949 8.33328 342.98 6.27267C345.025 4.21207 347.389 2.65146 350.071 1.59085C352.767 0.530245 355.669 -5.72205e-05 358.775 -5.72205e-05C361.472 -5.72205e-05 363.98 0.386307 366.298 1.15903C368.631 1.93176 370.692 3.02267 372.48 4.43176C374.283 5.84085 375.745 7.5151 376.866 9.45449C377.987 11.3939 378.684 13.5227 378.957 15.8409H367.571ZM413.477 14.5909C413.325 12.9242 412.651 11.6287 411.454 10.7045C410.272 9.7651 408.583 9.2954 406.386 9.2954C404.931 9.2954 403.719 9.48479 402.749 9.86358C401.78 10.2424 401.052 10.7651 400.568 11.4318C400.083 12.0833 399.833 12.8333 399.818 13.6818C399.787 14.3787 399.924 14.9924 400.227 15.5227C400.545 16.053 400.999 16.5227 401.59 16.9318C402.196 17.3257 402.924 17.6742 403.772 17.9772C404.621 18.2802 405.575 18.5454 406.636 18.7727L410.636 19.6818C412.939 20.1818 414.969 20.8484 416.727 21.6818C418.499 22.5151 419.984 23.5075 421.181 24.659C422.393 25.8105 423.31 27.1363 423.931 28.6363C424.552 30.1363 424.871 31.8181 424.886 33.6818C424.871 36.6212 424.128 39.1439 422.658 41.2499C421.189 43.356 419.075 44.9696 416.318 46.0909C413.575 47.2121 410.265 47.7727 406.386 47.7727C402.492 47.7727 399.098 47.1893 396.204 46.0227C393.31 44.856 391.06 43.0833 389.454 40.7045C387.848 38.3257 387.022 35.3181 386.977 31.6818H397.749C397.84 33.1818 398.242 34.4318 398.954 35.4318C399.666 36.4318 400.643 37.1893 401.886 37.7045C403.143 38.2196 404.598 38.4772 406.249 38.4772C407.765 38.4772 409.052 38.2727 410.113 37.8636C411.189 37.4545 412.015 36.8863 412.59 36.159C413.166 35.4318 413.461 34.5984 413.477 33.659C413.461 32.7802 413.189 32.0302 412.658 31.409C412.128 30.7727 411.31 30.2272 410.204 29.7727C409.113 29.303 407.719 28.8712 406.022 28.4772L401.158 27.3409C397.128 26.4166 393.954 24.9242 391.636 22.8636C389.318 20.7878 388.166 17.9848 388.181 14.4545C388.166 11.5757 388.939 9.05297 390.499 6.88631C392.06 4.71964 394.219 3.03025 396.977 1.81813C399.734 0.606004 402.878 -5.72205e-05 406.408 -5.72205e-05C410.015 -5.72205e-05 413.143 0.613579 415.795 1.84085C418.461 3.05297 420.53 4.75752 421.999 6.95449C423.469 9.15146 424.219 11.6969 424.249 14.5909H413.477ZM467.058 17.4999H455.694C455.542 16.3333 455.232 15.2802 454.762 14.3409C454.292 13.4015 453.671 12.5984 452.898 11.9318C452.126 11.2651 451.209 10.7575 450.148 10.409C449.103 10.0454 447.944 9.86358 446.671 9.86358C444.414 9.86358 442.467 10.4166 440.83 11.5227C439.209 12.6287 437.959 14.2272 437.08 16.3181C436.217 18.409 435.785 20.9393 435.785 23.909C435.785 26.9999 436.224 29.5909 437.103 31.6818C437.997 33.7575 439.247 35.3257 440.853 36.3863C442.474 37.4318 444.391 37.9545 446.603 37.9545C447.845 37.9545 448.974 37.7954 449.989 37.4772C451.02 37.159 451.921 36.6969 452.694 36.0909C453.482 35.4696 454.126 34.7196 454.626 33.8409C455.141 32.9469 455.497 31.9393 455.694 30.8181L467.058 30.8863C466.861 32.9469 466.262 34.9772 465.262 36.9772C464.277 38.9772 462.921 40.803 461.194 42.4545C459.467 44.0909 457.361 45.3939 454.876 46.3636C452.406 47.3333 449.573 47.8181 446.376 47.8181C442.164 47.8181 438.391 46.8939 435.058 45.0454C431.739 43.1818 429.118 40.4696 427.194 36.909C425.27 33.3484 424.308 29.0151 424.308 23.909C424.308 18.7878 425.285 14.4469 427.239 10.8863C429.194 7.3257 431.838 4.62116 435.171 2.77267C438.505 0.924185 442.239 -5.72205e-05 446.376 -5.72205e-05C449.194 -5.72205e-05 451.8 0.393883 454.194 1.18176C456.588 1.95449 458.694 3.09085 460.512 4.59085C462.33 6.0757 463.808 7.90146 464.944 10.0681C466.08 12.2348 466.785 14.7121 467.058 17.4999ZM467.735 47.1818V0.636307H478.985V19.3181H497.326V0.636307H508.553V47.1818H497.326V28.4772H478.985V47.1818H467.735ZM553.782 23.909C553.782 29.0302 552.797 33.3712 550.827 36.9318C548.858 40.4924 546.191 43.1969 542.827 45.0454C539.479 46.8939 535.721 47.8181 531.555 47.8181C527.373 47.8181 523.608 46.8863 520.259 45.0227C516.911 43.159 514.252 40.4545 512.282 36.909C510.327 33.3484 509.35 29.0151 509.35 23.909C509.35 18.7878 510.327 14.4469 512.282 10.8863C514.252 7.3257 516.911 4.62116 520.259 2.77267C523.608 0.924185 527.373 -5.72205e-05 531.555 -5.72205e-05C535.721 -5.72205e-05 539.479 0.924185 542.827 2.77267C546.191 4.62116 548.858 7.3257 550.827 10.8863C552.797 14.4469 553.782 18.7878 553.782 23.909ZM542.282 23.909C542.282 20.8787 541.85 18.3181 540.986 16.2272C540.138 14.1363 538.911 12.553 537.305 11.4772C535.714 10.4015 533.797 9.86358 531.555 9.86358C529.327 9.86358 527.411 10.4015 525.805 11.4772C524.199 12.553 522.964 14.1363 522.1 16.2272C521.252 18.3181 520.827 20.8787 520.827 23.909C520.827 26.9393 521.252 29.4999 522.1 31.5909C522.964 33.6818 524.199 35.2651 525.805 36.3409C527.411 37.4166 529.327 37.9545 531.555 37.9545C533.797 37.9545 535.714 37.4166 537.305 36.3409C538.911 35.2651 540.138 33.6818 540.986 31.5909C541.85 29.4999 542.282 26.9393 542.282 23.909ZM598.522 23.909C598.522 29.0302 597.537 33.3712 595.567 36.9318C593.598 40.4924 590.931 43.1969 587.567 45.0454C584.219 46.8939 580.461 47.8181 576.295 47.8181C572.113 47.8181 568.348 46.8863 564.999 45.0227C561.651 43.159 558.992 40.4545 557.022 36.909C555.067 33.3484 554.09 29.0151 554.09 23.909C554.09 18.7878 555.067 14.4469 557.022 10.8863C558.992 7.3257 561.651 4.62116 564.999 2.77267C568.348 0.924185 572.113 -5.72205e-05 576.295 -5.72205e-05C580.461 -5.72205e-05 584.219 0.924185 587.567 2.77267C590.931 4.62116 593.598 7.3257 595.567 10.8863C597.537 14.4469 598.522 18.7878 598.522 23.909ZM587.022 23.909C587.022 20.8787 586.59 18.3181 585.726 16.2272C584.878 14.1363 583.651 12.553 582.045 11.4772C580.454 10.4015 578.537 9.86358 576.295 9.86358C574.067 9.86358 572.151 10.4015 570.545 11.4772C568.938 12.553 567.704 14.1363 566.84 16.2272C565.992 18.3181 565.567 20.8787 565.567 23.909C565.567 26.9393 565.992 29.4999 566.84 31.5909C567.704 33.6818 568.938 35.2651 570.545 36.3409C572.151 37.4166 574.067 37.9545 576.295 37.9545C578.537 37.9545 580.454 37.4166 582.045 36.3409C583.651 35.2651 584.878 33.6818 585.726 31.5909C586.59 29.4999 587.022 26.9393 587.022 23.909ZM599.33 47.1818V0.636307H610.58V38.0454H629.944V47.1818H599.33Z" fill="white"/>
</svg>
