<svg width="630" height="48" viewBox="0 0 630 48" fill="none" xmlns="http://www.w3.org/2000/svg">
<path d="M5.29289e-05 47.1816V0.636185H31.7728V9.77255H11.2501V19.318H29.7501V28.4771H11.2501V47.1816H5.29289e-05ZM59.8366 0.636185H71.0639V30.6589C71.0639 34.1286 70.2382 37.1513 68.5866 39.7271C66.9351 42.2877 64.6321 44.2725 61.6776 45.6816C58.723 47.0756 55.2912 47.7725 51.3821 47.7725C47.4276 47.7725 43.973 47.0756 41.0185 45.6816C38.0639 44.2725 35.7685 42.2877 34.1321 39.7271C32.4957 37.1513 31.6776 34.1286 31.6776 30.6589V0.636185H42.9276V29.6816C42.9276 31.2877 43.276 32.7195 43.973 33.9771C44.6851 35.2347 45.6776 36.2195 46.9503 36.9316C48.223 37.6438 49.7003 37.9998 51.3821 37.9998C53.0639 37.9998 54.5336 37.6438 55.7912 36.9316C57.0639 36.2195 58.0563 35.2347 58.7685 33.9771C59.4806 32.7195 59.8366 31.2877 59.8366 29.6816V0.636185ZM111.969 0.636185V47.1816H102.423L83.9005 20.318H83.605V47.1816H72.355V0.636185H82.0369L100.355 27.4544H100.741V0.636185H111.969ZM130.487 47.1816H113.283V0.636185H130.464C135.207 0.636185 139.29 1.568 142.714 3.43164C146.154 5.28012 148.805 7.94679 150.669 11.4316C152.533 14.9013 153.464 19.0529 153.464 23.8862C153.464 28.7347 152.533 32.9013 150.669 36.3862C148.82 39.871 146.176 42.5453 142.737 44.4089C139.298 46.2574 135.214 47.1816 130.487 47.1816ZM124.533 37.5907H130.055C132.661 37.5907 134.866 37.1513 136.669 36.2725C138.487 35.3786 139.858 33.9316 140.783 31.9316C141.722 29.9165 142.192 27.2347 142.192 23.8862C142.192 20.5377 141.722 17.871 140.783 15.8862C139.843 13.8862 138.457 12.4468 136.623 11.568C134.805 10.6741 132.563 10.2271 129.896 10.2271H124.533V37.5907ZM154.273 47.1816V0.636185H173.5C176.985 0.636185 179.992 1.26497 182.523 2.52255C185.068 3.76497 187.03 5.55285 188.409 7.88618C189.788 10.2044 190.477 12.9544 190.477 16.1362C190.477 19.3635 189.773 22.1059 188.363 24.3635C186.954 26.6059 184.954 28.318 182.363 29.4998C179.773 30.6665 176.704 31.2498 173.159 31.2498H161V22.3862H171.068C172.765 22.3862 174.182 22.1665 175.318 21.7271C176.47 21.2725 177.341 20.5907 177.932 19.6816C178.523 18.7574 178.818 17.5756 178.818 16.1362C178.818 14.6968 178.523 13.5074 177.932 12.568C177.341 11.6135 176.47 10.9013 175.318 10.4316C174.166 9.94679 172.75 9.70437 171.068 9.70437H165.523V47.1816H154.273ZM180.477 25.9089L192.068 47.1816H179.795L168.432 25.9089H180.477ZM200.956 47.1816H188.865L204.569 0.636185H219.547L235.251 47.1816H223.16L212.228 12.3635H211.865L200.956 47.1816ZM199.342 28.8635H224.615V37.4089H199.342V28.8635ZM245.753 0.636185V47.1816H234.503V0.636185H245.753ZM272.214 14.5907C272.063 12.9241 271.388 11.6286 270.191 10.7044C269.01 9.76497 267.32 9.29528 265.123 9.29528C263.669 9.29528 262.457 9.48467 261.487 9.86346C260.517 10.2422 259.79 10.765 259.305 11.4316C258.82 12.0832 258.57 12.8332 258.555 13.6816C258.525 14.3786 258.661 14.9922 258.964 15.5225C259.282 16.0529 259.737 16.5225 260.328 16.9316C260.934 17.3256 261.661 17.6741 262.51 17.9771C263.358 18.2801 264.313 18.5453 265.373 18.7725L269.373 19.6816C271.676 20.1816 273.707 20.8483 275.464 21.6816C277.237 22.515 278.722 23.5074 279.919 24.6589C281.131 25.8104 282.047 27.1362 282.669 28.6362C283.29 30.1362 283.608 31.818 283.623 33.6816C283.608 36.621 282.866 39.1438 281.396 41.2498C279.926 43.3559 277.813 44.9695 275.055 46.0907C272.313 47.2119 269.002 47.7725 265.123 47.7725C261.229 47.7725 257.835 47.1892 254.941 46.0225C252.047 44.8559 249.797 43.0832 248.191 40.7044C246.585 38.3256 245.76 35.318 245.714 31.6816H256.487C256.578 33.1816 256.979 34.4316 257.691 35.4316C258.404 36.4316 259.381 37.1892 260.623 37.7044C261.881 38.2195 263.335 38.4771 264.987 38.4771C266.502 38.4771 267.79 38.2725 268.851 37.8635C269.926 37.4544 270.752 36.8862 271.328 36.1589C271.904 35.4316 272.199 34.5983 272.214 33.6589C272.199 32.7801 271.926 32.0301 271.396 31.4089C270.866 30.7725 270.047 30.2271 268.941 29.7725C267.851 29.3029 266.457 28.871 264.76 28.4771L259.896 27.3407C255.866 26.4165 252.691 24.9241 250.373 22.8635C248.055 20.7877 246.904 17.9847 246.919 14.4544C246.904 11.5756 247.676 9.05285 249.237 6.88618C250.797 4.71952 252.957 3.03012 255.714 1.818C258.472 0.605882 261.616 -0.000179291 265.146 -0.000179291C268.752 -0.000179291 271.881 0.613457 274.532 1.84073C277.199 3.05285 279.267 4.7574 280.737 6.95437C282.207 9.15134 282.957 11.6968 282.987 14.5907H272.214ZM294.795 0.636185V47.1816H283.545V0.636185H294.795ZM335.711 0.636185V47.1816H326.166L307.643 20.318H307.348V47.1816H296.098V0.636185H305.779L324.098 27.4544H324.484V0.636185H335.711ZM367.571 15.8407C367.313 14.8862 366.934 14.0453 366.434 13.318C365.934 12.5756 365.321 11.9468 364.593 11.4316C363.866 10.9165 363.033 10.5301 362.093 10.2725C361.154 9.99982 360.124 9.86346 359.002 9.86346C356.745 9.86346 354.79 10.4089 353.139 11.4998C351.502 12.5907 350.237 14.1816 349.343 16.2725C348.449 18.3483 348.002 20.871 348.002 23.8407C348.002 26.8256 348.434 29.371 349.298 31.4771C350.161 33.5832 351.411 35.1892 353.048 36.2953C354.684 37.4013 356.669 37.9544 359.002 37.9544C361.063 37.9544 362.805 37.621 364.23 36.9544C365.669 36.2725 366.76 35.3104 367.502 34.068C368.245 32.8256 368.616 31.3635 368.616 29.6816L370.707 29.9316H359.389V21.7271H379.457V27.8862C379.457 32.0529 378.571 35.621 376.798 38.5907C375.04 41.5604 372.616 43.8407 369.525 45.4316C366.449 47.0225 362.911 47.818 358.911 47.818C354.472 47.818 350.571 46.8559 347.207 44.9316C343.843 43.0074 341.222 40.265 339.343 36.7044C337.464 33.1286 336.525 28.8862 336.525 23.9771C336.525 20.1589 337.093 16.7725 338.23 13.818C339.366 10.8483 340.949 8.33315 342.98 6.27255C345.025 4.21194 347.389 2.65134 350.071 1.59073C352.767 0.530123 355.669 -0.000179291 358.775 -0.000179291C361.472 -0.000179291 363.98 0.386185 366.298 1.15891C368.631 1.93164 370.692 3.02255 372.48 4.43164C374.283 5.84073 375.745 7.51497 376.866 9.45437C377.987 11.3938 378.684 13.5225 378.957 15.8407H367.571ZM413.477 14.5907C413.325 12.9241 412.651 11.6286 411.454 10.7044C410.272 9.76497 408.583 9.29528 406.386 9.29528C404.931 9.29528 403.719 9.48467 402.749 9.86346C401.78 10.2422 401.052 10.765 400.568 11.4316C400.083 12.0832 399.833 12.8332 399.818 13.6816C399.787 14.3786 399.924 14.9922 400.227 15.5225C400.545 16.0529 400.999 16.5225 401.59 16.9316C402.196 17.3256 402.924 17.6741 403.772 17.9771C404.621 18.2801 405.575 18.5453 406.636 18.7725L410.636 19.6816C412.939 20.1816 414.969 20.8483 416.727 21.6816C418.499 22.515 419.984 23.5074 421.181 24.6589C422.393 25.8104 423.31 27.1362 423.931 28.6362C424.552 30.1362 424.871 31.818 424.886 33.6816C424.871 36.621 424.128 39.1438 422.658 41.2498C421.189 43.3559 419.075 44.9695 416.318 46.0907C413.575 47.2119 410.265 47.7725 406.386 47.7725C402.492 47.7725 399.098 47.1892 396.204 46.0225C393.31 44.8559 391.06 43.0832 389.454 40.7044C387.848 38.3256 387.022 35.318 386.977 31.6816H397.749C397.84 33.1816 398.242 34.4316 398.954 35.4316C399.666 36.4316 400.643 37.1892 401.886 37.7044C403.143 38.2195 404.598 38.4771 406.249 38.4771C407.765 38.4771 409.052 38.2725 410.113 37.8635C411.189 37.4544 412.015 36.8862 412.59 36.1589C413.166 35.4316 413.461 34.5983 413.477 33.6589C413.461 32.7801 413.189 32.0301 412.658 31.4089C412.128 30.7725 411.31 30.2271 410.204 29.7725C409.113 29.3029 407.719 28.871 406.022 28.4771L401.158 27.3407C397.128 26.4165 393.954 24.9241 391.636 22.8635C389.318 20.7877 388.166 17.9847 388.181 14.4544C388.166 11.5756 388.939 9.05285 390.499 6.88618C392.06 4.71952 394.219 3.03012 396.977 1.818C399.734 0.605882 402.878 -0.000179291 406.408 -0.000179291C410.015 -0.000179291 413.143 0.613457 415.795 1.84073C418.461 3.05285 420.53 4.7574 421.999 6.95437C423.469 9.15134 424.219 11.6968 424.249 14.5907H413.477ZM467.058 17.4998H455.694C455.542 16.3332 455.232 15.2801 454.762 14.3407C454.292 13.4013 453.671 12.5983 452.898 11.9316C452.126 11.265 451.209 10.7574 450.148 10.4089C449.103 10.0453 447.944 9.86346 446.671 9.86346C444.414 9.86346 442.467 10.4165 440.83 11.5225C439.209 12.6286 437.959 14.2271 437.08 16.318C436.217 18.4089 435.785 20.9392 435.785 23.9089C435.785 26.9998 436.224 29.5907 437.103 31.6816C437.997 33.7574 439.247 35.3256 440.853 36.3862C442.474 37.4316 444.391 37.9544 446.603 37.9544C447.845 37.9544 448.974 37.7953 449.989 37.4771C451.02 37.1589 451.921 36.6968 452.694 36.0907C453.482 35.4695 454.126 34.7195 454.626 33.8407C455.141 32.9468 455.497 31.9392 455.694 30.818L467.058 30.8862C466.861 32.9468 466.262 34.9771 465.262 36.9771C464.277 38.9771 462.921 40.8029 461.194 42.4544C459.467 44.0907 457.361 45.3938 454.876 46.3635C452.406 47.3332 449.573 47.818 446.376 47.818C442.164 47.818 438.391 46.8938 435.058 45.0453C431.739 43.1816 429.118 40.4695 427.194 36.9089C425.27 33.3483 424.308 29.015 424.308 23.9089C424.308 18.7877 425.285 14.4468 427.239 10.8862C429.194 7.32558 431.838 4.62103 435.171 2.77255C438.505 0.924063 442.239 -0.000179291 446.376 -0.000179291C449.194 -0.000179291 451.8 0.393761 454.194 1.18164C456.588 1.95437 458.694 3.09073 460.512 4.59073C462.33 6.07558 463.808 7.90134 464.944 10.068C466.08 12.2347 466.785 14.7119 467.058 17.4998ZM467.735 47.1816V0.636185H478.985V19.318H497.326V0.636185H508.553V47.1816H497.326V28.4771H478.985V47.1816H467.735ZM553.782 23.9089C553.782 29.0301 552.797 33.371 550.827 36.9316C548.858 40.4922 546.191 43.1968 542.827 45.0453C539.479 46.8938 535.721 47.818 531.555 47.818C527.373 47.818 523.608 46.8862 520.259 45.0225C516.911 43.1589 514.252 40.4544 512.282 36.9089C510.327 33.3483 509.35 29.015 509.35 23.9089C509.35 18.7877 510.327 14.4468 512.282 10.8862C514.252 7.32558 516.911 4.62103 520.259 2.77255C523.608 0.924063 527.373 -0.000179291 531.555 -0.000179291C535.721 -0.000179291 539.479 0.924063 542.827 2.77255C546.191 4.62103 548.858 7.32558 550.827 10.8862C552.797 14.4468 553.782 18.7877 553.782 23.9089ZM542.282 23.9089C542.282 20.8786 541.85 18.318 540.986 16.2271C540.138 14.1362 538.911 12.5529 537.305 11.4771C535.714 10.4013 533.797 9.86346 531.555 9.86346C529.327 9.86346 527.411 10.4013 525.805 11.4771C524.199 12.5529 522.964 14.1362 522.1 16.2271C521.252 18.318 520.827 20.8786 520.827 23.9089C520.827 26.9392 521.252 29.4998 522.1 31.5907C522.964 33.6816 524.199 35.265 525.805 36.3407C527.411 37.4165 529.327 37.9544 531.555 37.9544C533.797 37.9544 535.714 37.4165 537.305 36.3407C538.911 35.265 540.138 33.6816 540.986 31.5907C541.85 29.4998 542.282 26.9392 542.282 23.9089ZM598.522 23.9089C598.522 29.0301 597.537 33.371 595.567 36.9316C593.598 40.4922 590.931 43.1968 587.567 45.0453C584.219 46.8938 580.461 47.818 576.295 47.818C572.113 47.818 568.348 46.8862 564.999 45.0225C561.651 43.1589 558.992 40.4544 557.022 36.9089C555.067 33.3483 554.09 29.015 554.09 23.9089C554.09 18.7877 555.067 14.4468 557.022 10.8862C558.992 7.32558 561.651 4.62103 564.999 2.77255C568.348 0.924063 572.113 -0.000179291 576.295 -0.000179291C580.461 -0.000179291 584.219 0.924063 587.567 2.77255C590.931 4.62103 593.598 7.32558 595.567 10.8862C597.537 14.4468 598.522 18.7877 598.522 23.9089ZM587.022 23.9089C587.022 20.8786 586.59 18.318 585.726 16.2271C584.878 14.1362 583.651 12.5529 582.045 11.4771C580.454 10.4013 578.537 9.86346 576.295 9.86346C574.067 9.86346 572.151 10.4013 570.545 11.4771C568.938 12.5529 567.704 14.1362 566.84 16.2271C565.992 18.318 565.567 20.8786 565.567 23.9089C565.567 26.9392 565.992 29.4998 566.84 31.5907C567.704 33.6816 568.938 35.265 570.545 36.3407C572.151 37.4165 574.067 37.9544 576.295 37.9544C578.537 37.9544 580.454 37.4165 582.045 36.3407C583.651 35.265 584.878 33.6816 585.726 31.5907C586.59 29.4998 587.022 26.9392 587.022 23.9089ZM599.33 47.1816V0.636185H610.58V38.0453H629.944V47.1816H599.33Z" fill="white"/>
</svg>
