<svg width="348" height="178" viewBox="0 0 348 178" fill="none" xmlns="http://www.w3.org/2000/svg">
<path d="M28.9637 14.6818V61.2273H17.7137V14.6818H28.9637ZM69.8799 14.6818V61.2273H60.3344L41.8117 34.3637H41.5162V61.2273H30.2662V14.6818H39.9481L58.2662 41.5H58.6526V14.6818H69.8799ZM71.1937 14.6818H85.1256L96.9437 43.5H97.4892L109.307 14.6818H123.239V61.2273H112.285V32.6364H111.898L100.716 60.9318H93.7165L82.5346 32.4773H82.1483V61.2273H71.1937V14.6818ZM124.496 61.2273V14.6818H156.951V23.8182H135.746V33.3637H155.292V42.5227H135.746V52.0909H156.951V61.2273H124.496ZM158.236 61.2273V14.6818H177.464C180.948 14.6818 183.956 15.3106 186.486 16.5682C189.032 17.8106 190.994 19.5985 192.373 21.9318C193.751 24.25 194.441 27 194.441 30.1818C194.441 33.4091 193.736 36.1515 192.327 38.4091C190.918 40.6515 188.918 42.3637 186.327 43.5455C183.736 44.7121 180.668 45.2955 177.123 45.2955H164.964V36.4318H175.032C176.729 36.4318 178.145 36.2121 179.282 35.7727C180.433 35.3182 181.304 34.6364 181.895 33.7273C182.486 32.8031 182.782 31.6212 182.782 30.1818C182.782 28.7424 182.486 27.5531 181.895 26.6137C181.304 25.6591 180.433 24.947 179.282 24.4773C178.13 23.9924 176.714 23.75 175.032 23.75H169.486V61.2273H158.236ZM184.441 39.9546L196.032 61.2273H183.759L172.395 39.9546H184.441ZM220.01 28.6364C219.859 26.9697 219.185 25.6743 217.988 24.75C216.806 23.8106 215.116 23.3409 212.919 23.3409C211.465 23.3409 210.253 23.5303 209.283 23.9091C208.313 24.2879 207.586 24.8106 207.101 25.4773C206.616 26.1288 206.366 26.8788 206.351 27.7273C206.321 28.4243 206.457 29.0379 206.76 29.5682C207.079 30.0985 207.533 30.5682 208.124 30.9773C208.73 31.3712 209.457 31.7197 210.306 32.0227C211.154 32.3258 212.109 32.5909 213.169 32.8182L217.169 33.7273C219.472 34.2273 221.503 34.894 223.26 35.7273C225.033 36.5606 226.518 37.5531 227.715 38.7046C228.927 39.8561 229.844 41.1818 230.465 42.6818C231.086 44.1818 231.404 45.8637 231.419 47.7273C231.404 50.6667 230.662 53.1894 229.192 55.2955C227.722 57.4015 225.609 59.0152 222.851 60.1364C220.109 61.2576 216.798 61.8182 212.919 61.8182C209.025 61.8182 205.632 61.2349 202.738 60.0682C199.844 58.9015 197.594 57.1288 195.988 54.75C194.382 52.3712 193.556 49.3637 193.51 45.7273H204.283C204.374 47.2273 204.775 48.4773 205.488 49.4773C206.2 50.4773 207.177 51.2349 208.419 51.75C209.677 52.2652 211.132 52.5227 212.783 52.5227C214.298 52.5227 215.586 52.3182 216.647 51.9091C217.722 51.5 218.548 50.9318 219.124 50.2046C219.7 49.4773 219.995 48.644 220.01 47.7046C219.995 46.8258 219.722 46.0758 219.192 45.4546C218.662 44.8182 217.844 44.2727 216.738 43.8182C215.647 43.3485 214.253 42.9167 212.556 42.5227L207.692 41.3864C203.662 40.4621 200.488 38.9697 198.169 36.9091C195.851 34.8334 194.7 32.0303 194.715 28.5C194.7 25.6212 195.472 23.0985 197.033 20.9318C198.594 18.7652 200.753 17.0758 203.51 15.8637C206.268 14.6515 209.412 14.0455 212.942 14.0455C216.548 14.0455 219.677 14.6591 222.329 15.8864C224.995 17.0985 227.063 18.8031 228.533 21C230.003 23.197 230.753 25.7424 230.783 28.6364H220.01ZM242.591 14.6818V61.2273H231.341V14.6818H242.591ZM287.826 37.9546C287.826 43.0758 286.841 47.4167 284.871 50.9773C282.901 54.5379 280.235 57.2424 276.871 59.0909C273.523 60.9394 269.765 61.8637 265.598 61.8637C261.416 61.8637 257.651 60.9318 254.303 59.0682C250.954 57.2046 248.295 54.5 246.326 50.9546C244.371 47.394 243.394 43.0606 243.394 37.9546C243.394 32.8334 244.371 28.4924 246.326 24.9318C248.295 21.3712 250.954 18.6667 254.303 16.8182C257.651 14.9697 261.416 14.0455 265.598 14.0455C269.765 14.0455 273.523 14.9697 276.871 16.8182C280.235 18.6667 282.901 21.3712 284.871 24.9318C286.841 28.4924 287.826 32.8334 287.826 37.9546ZM276.326 37.9546C276.326 34.9243 275.894 32.3637 275.03 30.2727C274.182 28.1818 272.954 26.5985 271.348 25.5227C269.757 24.447 267.841 23.9091 265.598 23.9091C263.371 23.9091 261.454 24.447 259.848 25.5227C258.242 26.5985 257.007 28.1818 256.144 30.2727C255.295 32.3637 254.871 34.9243 254.871 37.9546C254.871 40.9849 255.295 43.5455 256.144 45.6364C257.007 47.7273 258.242 49.3106 259.848 50.3864C261.454 51.4621 263.371 52 265.598 52C267.841 52 269.757 51.4621 271.348 50.3864C272.954 49.3106 274.182 47.7273 275.03 45.6364C275.894 43.5455 276.326 40.9849 276.326 37.9546ZM261.78 10.25L266.371 1.90735e-05H276.212L269.348 10.25H261.78ZM328.247 14.6818V61.2273H318.702L300.179 34.3637H299.884V61.2273H288.634V14.6818H298.316L316.634 41.5H317.02V14.6818H328.247ZM-2.3365e-05 177.227V130.682H19.2272C22.7121 130.682 25.7197 131.364 28.25 132.727C30.7954 134.076 32.7576 135.962 34.1363 138.386C35.5151 140.795 36.2045 143.599 36.2045 146.795C36.2045 150.008 35.5 152.818 34.0909 155.227C32.6969 157.621 30.7045 159.477 28.1136 160.795C25.5227 162.114 22.4469 162.773 18.8863 162.773H7.0227V153.909H16.7954C18.4924 153.909 19.9091 153.614 21.0454 153.023C22.1969 152.432 23.0682 151.606 23.6591 150.545C24.25 149.47 24.5454 148.22 24.5454 146.795C24.5454 145.356 24.25 144.114 23.6591 143.068C23.0682 142.008 22.1969 141.189 21.0454 140.614C19.8939 140.038 18.4772 139.75 16.7954 139.75H11.25V177.227H-2.3365e-05ZM35.99 177.227V130.682H55.2172C58.7021 130.682 61.7097 131.311 64.24 132.568C66.7854 133.811 68.7476 135.599 70.1263 137.932C71.5051 140.25 72.1945 143 72.1945 146.182C72.1945 149.409 71.49 152.152 70.0809 154.409C68.6718 156.652 66.6718 158.364 64.0809 159.545C61.49 160.712 58.4218 161.295 54.8763 161.295H42.7172V152.432H52.7854C54.4824 152.432 55.8991 152.212 57.0354 151.773C58.1869 151.318 59.0582 150.636 59.6491 149.727C60.24 148.803 60.5354 147.621 60.5354 146.182C60.5354 144.742 60.24 143.553 59.6491 142.614C59.0582 141.659 58.1869 140.947 57.0354 140.477C55.8839 139.992 54.4672 139.75 52.7854 139.75H47.24V177.227H35.99ZM62.1945 155.955L73.7854 177.227H61.5127L50.1491 155.955H62.1945ZM72.605 177.227V130.682H105.06V139.818H83.855V149.364H103.4V158.523H83.855V168.091H105.06V177.227H72.605ZM131.504 144.636C131.353 142.97 130.678 141.674 129.481 140.75C128.3 139.811 126.61 139.341 124.413 139.341C122.959 139.341 121.746 139.53 120.777 139.909C119.807 140.288 119.08 140.811 118.595 141.477C118.11 142.129 117.86 142.879 117.845 143.727C117.815 144.424 117.951 145.038 118.254 145.568C118.572 146.099 119.027 146.568 119.618 146.977C120.224 147.371 120.951 147.72 121.8 148.023C122.648 148.326 123.603 148.591 124.663 148.818L128.663 149.727C130.966 150.227 132.996 150.894 134.754 151.727C136.527 152.561 138.012 153.553 139.209 154.705C140.421 155.856 141.337 157.182 141.959 158.682C142.58 160.182 142.898 161.864 142.913 163.727C142.898 166.667 142.156 169.189 140.686 171.295C139.216 173.402 137.103 175.015 134.345 176.136C131.603 177.258 128.292 177.818 124.413 177.818C120.519 177.818 117.125 177.235 114.231 176.068C111.337 174.902 109.087 173.129 107.481 170.75C105.875 168.371 105.05 165.364 105.004 161.727H115.777C115.868 163.227 116.269 164.477 116.981 165.477C117.693 166.477 118.671 167.235 119.913 167.75C121.171 168.265 122.625 168.523 124.277 168.523C125.792 168.523 127.08 168.318 128.14 167.909C129.216 167.5 130.042 166.932 130.618 166.205C131.193 165.477 131.489 164.644 131.504 163.705C131.489 162.826 131.216 162.076 130.686 161.455C130.156 160.818 129.337 160.273 128.231 159.818C127.14 159.349 125.746 158.917 124.05 158.523L119.186 157.386C115.156 156.462 111.981 154.97 109.663 152.909C107.345 150.833 106.193 148.03 106.209 144.5C106.193 141.621 106.966 139.099 108.527 136.932C110.087 134.765 112.246 133.076 115.004 131.864C117.762 130.652 120.906 130.045 124.436 130.045C128.042 130.045 131.171 130.659 133.822 131.886C136.489 133.099 138.557 134.803 140.027 137C141.496 139.197 142.246 141.742 142.277 144.636H131.504ZM142.835 177.227V130.682H175.29V139.818H154.085V149.364H173.63V158.523H154.085V168.091H175.29V177.227H142.835ZM216.189 130.682V177.227H206.643L188.12 150.364H187.825V177.227H176.575V130.682H186.257L204.575 157.5H204.961V130.682H216.189ZM259.752 147.545H248.389C248.237 146.379 247.927 145.326 247.457 144.386C246.987 143.447 246.366 142.644 245.593 141.977C244.821 141.311 243.904 140.803 242.843 140.455C241.798 140.091 240.639 139.909 239.366 139.909C237.109 139.909 235.162 140.462 233.525 141.568C231.904 142.674 230.654 144.273 229.775 146.364C228.912 148.455 228.48 150.985 228.48 153.955C228.48 157.045 228.919 159.636 229.798 161.727C230.692 163.803 231.942 165.371 233.548 166.432C235.169 167.477 237.086 168 239.298 168C240.54 168 241.669 167.841 242.684 167.523C243.715 167.205 244.616 166.742 245.389 166.136C246.177 165.515 246.821 164.765 247.321 163.886C247.836 162.992 248.192 161.985 248.389 160.864L259.752 160.932C259.556 162.992 258.957 165.023 257.957 167.023C256.972 169.023 255.616 170.849 253.889 172.5C252.162 174.136 250.056 175.439 247.571 176.409C245.101 177.379 242.268 177.864 239.071 177.864C234.859 177.864 231.086 176.939 227.752 175.091C224.434 173.227 221.813 170.515 219.889 166.955C217.965 163.394 217.002 159.061 217.002 153.955C217.002 148.833 217.98 144.492 219.934 140.932C221.889 137.371 224.533 134.667 227.866 132.818C231.199 130.97 234.934 130.045 239.071 130.045C241.889 130.045 244.495 130.439 246.889 131.227C249.283 132 251.389 133.136 253.207 134.636C255.025 136.121 256.502 137.947 257.639 140.114C258.775 142.28 259.48 144.758 259.752 147.545ZM271.68 130.682V177.227H260.43V130.682H271.68ZM283.051 177.227H270.96L286.664 130.682H301.642L317.346 177.227H305.255L294.323 142.409H293.96L283.051 177.227ZM281.437 158.909H306.71V167.455H281.437V158.909ZM316.597 177.227V130.682H327.847V168.091H347.211V177.227H316.597Z" fill="white"/>
<path d="M17.245 119.227V72.6818H49.6995V81.8182H28.495V91.3637H48.0404V100.523H28.495V110.091H49.6995V119.227H17.245ZM69.8941 72.6818H80.985V104.864C80.9698 107.879 80.2501 110.515 78.8259 112.773C77.4017 115.015 75.432 116.758 72.9168 118C70.4168 119.242 67.5229 119.864 64.235 119.864C61.3259 119.864 58.682 119.356 56.3032 118.341C53.9395 117.326 52.0532 115.75 50.6441 113.614C49.2501 111.477 48.5607 108.742 48.5759 105.409H59.7804C59.8259 106.606 60.0532 107.629 60.4623 108.477C60.8865 109.311 61.4698 109.939 62.2123 110.364C62.9547 110.788 63.841 111 64.8713 111C65.9471 111 66.8562 110.773 67.5986 110.318C68.341 109.849 68.9017 109.159 69.2804 108.25C69.6744 107.341 69.8789 106.212 69.8941 104.864V72.6818ZM82.2875 119.227V72.6818H114.742V81.8182H93.5375V91.3637H113.083V100.523H93.5375V110.091H114.742V119.227H82.2875ZM158.277 89.5455H146.914C146.762 88.3788 146.452 87.3258 145.982 86.3864C145.512 85.447 144.891 84.644 144.118 83.9773C143.346 83.3106 142.429 82.8031 141.368 82.4546C140.323 82.0909 139.164 81.9091 137.891 81.9091C135.634 81.9091 133.687 82.4621 132.05 83.5682C130.429 84.6743 129.179 86.2727 128.3 88.3637C127.437 90.4546 127.005 92.9849 127.005 95.9546C127.005 99.0455 127.444 101.636 128.323 103.727C129.217 105.803 130.467 107.371 132.073 108.432C133.694 109.477 135.611 110 137.823 110C139.065 110 140.194 109.841 141.209 109.523C142.24 109.205 143.141 108.742 143.914 108.136C144.702 107.515 145.346 106.765 145.846 105.886C146.361 104.992 146.717 103.985 146.914 102.864L158.277 102.932C158.081 104.992 157.482 107.023 156.482 109.023C155.497 111.023 154.141 112.849 152.414 114.5C150.687 116.136 148.581 117.439 146.096 118.409C143.626 119.379 140.793 119.864 137.596 119.864C133.384 119.864 129.611 118.939 126.277 117.091C122.959 115.227 120.338 112.515 118.414 108.955C116.49 105.394 115.527 101.061 115.527 95.9546C115.527 90.8334 116.505 86.4924 118.459 82.9318C120.414 79.3712 123.058 76.6667 126.391 74.8182C129.724 72.9697 133.459 72.0455 137.596 72.0455C140.414 72.0455 143.02 72.4394 145.414 73.2273C147.808 74 149.914 75.1364 151.732 76.6364C153.55 78.1212 155.027 79.947 156.164 82.1137C157.3 84.2803 158.005 86.7576 158.277 89.5455ZM187.114 72.6818H198.341V102.705C198.341 106.174 197.516 109.197 195.864 111.773C194.213 114.333 191.91 116.318 188.955 117.727C186 119.121 182.569 119.818 178.66 119.818C174.705 119.818 171.25 119.121 168.296 117.727C165.341 116.318 163.046 114.333 161.41 111.773C159.773 109.197 158.955 106.174 158.955 102.705V72.6818H170.205V101.727C170.205 103.333 170.553 104.765 171.25 106.023C171.963 107.28 172.955 108.265 174.228 108.977C175.5 109.689 176.978 110.045 178.66 110.045C180.341 110.045 181.811 109.689 183.069 108.977C184.341 108.265 185.334 107.28 186.046 106.023C186.758 104.765 187.114 103.333 187.114 101.727V72.6818ZM198.11 81.8182V72.6818H237.451V81.8182H223.337V119.227H212.246V81.8182H198.11ZM248.435 72.6818V119.227H237.185V72.6818H248.435ZM260.306 72.6818L270.715 106.773H271.101L281.51 72.6818H294.101L278.397 119.227H263.419L247.715 72.6818H260.306ZM296.483 119.227H284.392L300.097 72.6818H315.074L330.779 119.227H318.688L307.756 84.4091H307.392L296.483 119.227ZM294.87 100.909H320.142V109.455H294.87V100.909Z" fill="#E9FF7B"/>
</svg>
