<svg width="476" height="62" viewBox="0 0 476 62" fill="none" xmlns="http://www.w3.org/2000/svg">
<path d="M26.624 48.128C26.0693 48.128 25.7067 47.7867 25.536 47.104L16.192 8.96C16.1493 8.74667 16.0427 8.64 15.872 8.64C15.7013 8.64 15.5733 8.74667 15.488 8.96L7.87199 42.048C7.57332 43.2427 7.55199 44.16 7.80799 44.8C8.10666 45.3973 8.76799 45.7813 9.79199 45.952L10.56 46.08C11.1147 46.1227 11.3493 46.3787 11.264 46.848C11.136 47.3173 10.752 47.552 10.112 47.552H0.959988C0.319988 47.552 0.0639881 47.3173 0.191988 46.848C0.277322 46.3787 0.597322 46.1227 1.15199 46.08L2.04799 45.952C3.19999 45.7813 4.05332 45.3973 4.60799 44.8C5.16266 44.16 5.58932 43.2427 5.88799 42.048L14.272 5.696C14.4853 4.8 14.4853 4.20267 14.272 3.904C14.0587 3.60533 13.4827 3.37067 12.544 3.2L11.136 2.944C10.5813 2.816 10.368 2.56 10.496 2.176C10.5813 1.70667 10.944 1.472 11.584 1.472H17.792C18.8587 1.472 19.4987 1.94133 19.712 2.88L27.776 36.032C27.8613 36.3307 27.9893 36.48 28.16 36.48C28.3733 36.48 28.5013 36.3307 28.544 36.032L35.264 6.976C35.6053 5.61067 35.6053 4.672 35.264 4.16C34.9227 3.60533 34.3893 3.264 33.664 3.136L32.576 2.944C32.0213 2.816 31.808 2.56 31.936 2.176C32.0213 1.70667 32.384 1.472 33.024 1.472H42.176C42.816 1.472 43.0933 1.70667 43.008 2.176C42.8373 2.64533 42.496 2.90133 41.984 2.944L41.088 3.072C39.936 3.24267 39.0827 3.60533 38.528 4.16C38.016 4.672 37.5893 5.61067 37.248 6.976L28.096 46.72C27.8827 47.6587 27.392 48.128 26.624 48.128ZM42.3215 48.128C40.0602 48.128 38.2468 47.2533 36.8815 45.504C35.5162 43.712 34.8335 41.1947 34.8335 37.952C34.8335 35.136 35.3242 32.3413 36.3055 29.568C37.3295 26.7947 38.6522 24.2773 40.2735 22.016C41.8948 19.7547 43.6655 17.9413 45.5855 16.576C47.5482 15.2107 49.4468 14.528 51.2815 14.528C53.2868 14.528 54.7162 15.0187 55.5695 16C56.4655 16.9387 56.9135 18.2187 56.9135 19.84C56.9135 21.76 56.2308 23.68 54.8655 25.6C53.5428 27.4773 51.6655 29.1627 49.2335 30.656C46.8442 32.1493 44.0282 33.2587 40.7855 33.984C39.8468 34.1973 39.3562 34.7307 39.3135 35.584C39.2708 35.8827 39.2495 36.2027 39.2495 36.544C39.2495 36.8427 39.2495 37.1413 39.2495 37.44C39.2495 39.872 39.6548 41.7067 40.4655 42.944C41.3188 44.1813 42.4708 44.8 43.9215 44.8C45.5428 44.8 47.1002 44.0533 48.5935 42.56C50.1295 41.0667 51.4095 38.9547 52.4335 36.224C52.5615 35.84 52.8175 35.648 53.2015 35.648C53.4575 35.648 53.6068 35.7547 53.6495 35.968C53.7348 36.1813 53.7348 36.4373 53.6495 36.736C52.2842 40.4907 50.6202 43.328 48.6575 45.248C46.7375 47.168 44.6255 48.128 42.3215 48.128ZM39.9535 31.552C39.8682 31.8507 39.9108 32.1067 40.0815 32.32C40.2948 32.4907 40.5508 32.5333 40.8495 32.448C43.4948 31.7227 45.7135 30.6347 47.5055 29.184C49.2975 27.6907 50.6415 26.0267 51.5375 24.192C52.4762 22.3573 52.9455 20.5653 52.9455 18.816C52.9455 17.024 52.2415 16.128 50.8335 16.128C49.5962 16.128 48.2522 16.8533 46.8015 18.304C45.3508 19.7547 44.0068 21.6533 42.7695 24C41.5322 26.3467 40.5935 28.864 39.9535 31.552ZM59.7075 61.376C56.3368 61.376 53.7768 60.7573 52.0275 59.52C50.2782 58.2827 49.4035 56.8107 49.4035 55.104C49.4035 53.6107 50.0008 52.1387 51.1955 50.688C52.3475 49.28 54.5022 47.6587 57.6595 45.824C58.1288 45.568 58.3848 45.2907 58.4275 44.992C58.5128 44.6507 58.3208 44.3307 57.8515 44.032C56.6568 43.264 55.9315 42.368 55.6755 41.344C55.4622 40.32 55.7395 39.5947 56.5075 39.168L61.3715 36.352C61.7982 36.1387 62.0115 35.8827 62.0115 35.584C62.0542 35.2427 61.8408 34.944 61.3715 34.688C60.2195 34.0053 59.3448 33.0453 58.7475 31.808C58.1928 30.528 57.9155 29.1413 57.9155 27.648C57.9155 25.344 58.4702 23.2107 59.5795 21.248C60.7315 19.2427 62.2462 17.6213 64.1235 16.384C66.0435 15.1467 68.1768 14.528 70.5235 14.528C71.5048 14.528 72.3368 14.656 73.0195 14.912C73.5315 15.0827 73.9155 14.912 74.1715 14.4C74.8968 12.8213 75.8142 11.584 76.9235 10.688C78.0755 9.74933 79.2702 9.28 80.5075 9.28C81.4035 9.28 82.0862 9.51467 82.5555 9.984C83.0675 10.4533 83.3235 11.0933 83.3235 11.904C83.3235 12.7147 83.0888 13.376 82.6195 13.888C82.1502 14.4 81.5528 14.656 80.8275 14.656C80.2728 14.656 79.8462 14.5493 79.5475 14.336C79.2915 14.1227 79.0568 13.9093 78.8435 13.696C78.6302 13.4827 78.2888 13.376 77.8195 13.376C76.8808 13.376 76.1342 13.9093 75.5795 14.976C75.4088 15.36 75.3662 15.7227 75.4515 16.064C75.5368 16.3627 75.7075 16.6827 75.9635 17.024C77.0728 18.4747 77.6275 20.3093 77.6275 22.528C77.6275 24.5333 77.1795 26.4533 76.2835 28.288C75.4302 30.08 74.2355 31.616 72.6995 32.896C71.2062 34.1333 69.4782 34.9653 67.5155 35.392C66.7475 35.5627 66.0435 35.776 65.4035 36.032C64.8062 36.2453 64.0382 36.6507 63.0995 37.248L60.5395 38.784C59.8995 39.168 59.7288 39.6587 60.0275 40.256C60.3262 40.8107 61.1582 41.344 62.5235 41.856L68.0275 43.904C70.4168 44.7573 72.0595 45.8027 72.9555 47.04C73.8942 48.2773 74.3635 49.728 74.3635 51.392C74.3635 53.44 73.6808 55.2107 72.3155 56.704C70.9928 58.1973 69.2222 59.3493 67.0035 60.16C64.7848 60.9707 62.3528 61.376 59.7075 61.376ZM62.2035 28.8C62.2035 30.7627 62.4808 32.192 63.0355 33.088C63.6328 33.9413 64.4648 34.368 65.5315 34.368C66.8968 34.368 68.1555 33.7493 69.3075 32.512C70.5022 31.232 71.4622 29.6107 72.1875 27.648C72.9128 25.6427 73.2755 23.5733 73.2755 21.44C73.2755 19.3067 72.9982 17.856 72.4435 17.088C71.8888 16.2773 71.0568 15.872 69.9475 15.872C68.6248 15.872 67.3662 16.512 66.1715 17.792C64.9768 19.0293 64.0168 20.6293 63.2915 22.592C62.5662 24.5547 62.2035 26.624 62.2035 28.8ZM60.4115 59.776C62.0755 59.776 63.6328 59.4987 65.0835 58.944C66.5342 58.3893 67.7075 57.6 68.6035 56.576C69.5422 55.552 70.0115 54.336 70.0115 52.928C70.0115 51.52 69.6488 50.3467 68.9235 49.408C68.2408 48.512 66.8755 47.68 64.8275 46.912L63.6115 46.464C62.8435 46.1653 62.0755 46.0587 61.3075 46.144C60.5395 46.2293 59.8142 46.4427 59.1315 46.784C56.8275 48.064 55.2702 49.2587 54.4595 50.368C53.6488 51.4773 53.2435 52.6933 53.2435 54.016C53.2435 55.5947 53.8195 56.9387 54.9715 58.048C56.1235 59.2 57.9368 59.776 60.4115 59.776ZM85.989 48.128C83.3437 48.128 81.253 47.04 79.717 44.864C78.181 42.6453 77.413 39.6587 77.413 35.904C77.413 33.1307 77.861 30.464 78.757 27.904C79.653 25.344 80.8263 23.0613 82.277 21.056C83.7703 19.0507 85.413 17.472 87.205 16.32C89.0397 15.1253 90.8743 14.528 92.709 14.528C95.3543 14.528 97.445 15.616 98.981 17.792C100.517 19.968 101.285 22.9547 101.285 26.752C101.285 29.5253 100.837 32.192 99.941 34.752C99.045 37.312 97.8503 39.5947 96.357 41.6C94.9063 43.6053 93.2637 45.2053 91.429 46.4C89.637 47.552 87.8237 48.128 85.989 48.128ZM85.861 46.592C87.2263 46.592 88.549 45.9307 89.829 44.608C91.1517 43.2853 92.3463 41.536 93.413 39.36C94.4797 37.184 95.333 34.7733 95.973 32.128C96.613 29.44 96.933 26.752 96.933 24.064C96.933 18.7307 95.5463 16.064 92.773 16.064C91.4503 16.064 90.1277 16.7253 88.805 18.048C87.4823 19.328 86.2877 21.056 85.221 23.232C84.197 25.408 83.365 27.84 82.725 30.528C82.085 33.1733 81.765 35.84 81.765 38.528C81.765 43.904 83.1303 46.592 85.861 46.592ZM109.161 48.128C106.814 48.128 104.873 47.168 103.337 45.248C101.801 43.2853 101.033 40.7893 101.033 37.76C101.033 34.9013 101.481 32.1067 102.377 29.376C103.316 26.6027 104.553 24.1067 106.089 21.888C107.668 19.6267 109.396 17.8347 111.273 16.512C113.193 15.1893 115.113 14.528 117.033 14.528C119.081 14.528 120.809 15.0827 122.217 16.192C122.43 16.3627 122.558 16.512 122.601 16.64C122.644 16.7253 122.622 16.9387 122.537 17.28L120.809 25.664C120.681 26.2613 120.404 26.56 119.977 26.56C119.508 26.56 119.23 26.24 119.145 25.6L118.825 21.056C118.697 19.0933 118.398 17.8133 117.929 17.216C117.502 16.6187 116.862 16.32 116.009 16.32C114.814 16.32 113.598 16.9173 112.361 18.112C111.124 19.264 109.972 20.8427 108.905 22.848C107.881 24.8107 107.049 27.008 106.409 29.44C105.812 31.8293 105.513 34.2613 105.513 36.736C105.513 42.112 107.262 44.8 110.761 44.8C112.425 44.8 113.918 44.032 115.241 42.496C116.606 40.96 117.865 38.5707 119.017 35.328C119.145 34.9013 119.444 34.688 119.913 34.688C120.169 34.688 120.318 34.7947 120.361 35.008C120.404 35.1787 120.361 35.5413 120.233 36.096C119.806 38.4427 119.038 40.512 117.929 42.304C116.82 44.096 115.497 45.5253 113.961 46.592C112.468 47.616 110.868 48.128 109.161 48.128ZM133.006 8.832C132.196 8.832 131.513 8.55467 130.958 8C130.446 7.40267 130.19 6.69867 130.19 5.888C130.19 4.736 130.532 3.81867 131.214 3.136C131.94 2.45333 132.75 2.112 133.646 2.112C134.5 2.112 135.204 2.38933 135.758 2.944C136.356 3.456 136.654 4.13867 136.654 4.992C136.654 6.18667 136.292 7.12533 135.566 7.808C134.841 8.49067 133.988 8.832 133.006 8.832ZM127.758 48.192C126.35 48.192 125.348 47.68 124.75 46.656C124.153 45.5893 124.132 43.8613 124.686 41.472L129.422 21.184C129.636 20.2453 129.657 19.52 129.486 19.008C129.358 18.4533 128.974 18.176 128.334 18.176C127.566 18.176 126.713 18.752 125.774 19.904C124.878 21.0133 123.854 23.1467 122.702 26.304C122.532 26.8587 122.233 27.136 121.806 27.136C121.166 27.136 120.996 26.752 121.294 25.984C122.233 23.04 123.214 20.736 124.238 19.072C125.305 17.408 126.372 16.2347 127.438 15.552C128.505 14.8693 129.486 14.528 130.382 14.528C131.876 14.528 132.921 15.0613 133.518 16.128C134.116 17.152 134.137 18.8587 133.582 21.248L128.846 41.536C128.633 42.4747 128.59 43.2213 128.718 43.776C128.889 44.288 129.294 44.544 129.934 44.544C130.702 44.544 131.534 43.9893 132.43 42.88C133.369 41.728 134.414 39.5733 135.566 36.416C135.737 35.8613 136.036 35.584 136.462 35.584C137.102 35.584 137.273 35.968 136.974 36.736C136.078 39.6373 135.076 41.9413 133.966 43.648C132.9 45.312 131.833 46.4853 130.766 47.168C129.7 47.8507 128.697 48.192 127.758 48.192ZM141.524 48.128C139.988 48.128 138.793 47.4667 137.94 46.144C137.087 44.8213 136.66 42.88 136.66 40.32C136.66 37.888 137.001 35.456 137.684 33.024C138.367 30.5493 139.305 28.2027 140.5 25.984C141.695 23.7653 143.039 21.8027 144.532 20.096C146.068 18.3893 147.668 17.0453 149.332 16.064C151.039 15.04 152.724 14.528 154.388 14.528C155.199 14.528 155.967 14.6987 156.692 15.04C157.417 15.3387 158.015 15.8293 158.484 16.512C158.74 16.896 158.996 17.088 159.252 17.088C159.508 17.088 159.764 16.896 160.02 16.512C160.489 15.8293 160.873 15.4027 161.172 15.232C161.471 15.0187 161.748 14.912 162.004 14.912C162.559 14.912 162.772 15.2107 162.644 15.808L156.948 40.32C156.308 43.0933 156.735 44.48 158.228 44.48C159.209 44.48 160.084 43.8187 160.852 42.496C161.663 41.1733 162.473 39.1253 163.284 36.352C163.412 35.8827 163.689 35.648 164.116 35.648C164.415 35.648 164.607 35.776 164.692 36.032C164.777 36.288 164.777 36.5867 164.692 36.928C163.881 40.9387 162.793 43.8187 161.428 45.568C160.063 47.2747 158.42 48.128 156.5 48.128C154.836 48.128 153.641 47.424 152.916 46.016C152.233 44.608 152.169 42.688 152.724 40.256L153.556 36.736C153.641 36.4373 153.577 36.2667 153.364 36.224C153.193 36.1813 153.044 36.288 152.916 36.544C150.569 40.8533 148.479 43.8613 146.644 45.568C144.852 47.2747 143.145 48.128 141.524 48.128ZM143.124 44.864C144.148 44.864 145.279 44.2453 146.516 43.008C147.753 41.7707 148.969 40.1707 150.164 38.208C151.401 36.2453 152.532 34.1333 153.556 31.872C154.58 29.6107 155.391 27.4347 155.988 25.344C156.628 23.2533 156.948 21.4827 156.948 20.032C156.948 17.4293 156.031 16.128 154.196 16.128C153.087 16.128 151.913 16.64 150.676 17.664C149.439 18.6453 148.244 19.9893 147.092 21.696C145.983 23.4027 144.959 25.344 144.02 27.52C143.124 29.6533 142.399 31.8933 141.844 34.24C141.289 36.544 141.012 38.8053 141.012 41.024C141.012 42.5173 141.183 43.5413 141.524 44.096C141.908 44.608 142.441 44.864 143.124 44.864ZM172.668 48.128C170.322 48.128 168.38 47.168 166.844 45.248C165.308 43.2853 164.54 40.7893 164.54 37.76C164.54 34.9013 164.988 32.1067 165.884 29.376C166.823 26.6027 168.06 24.1067 169.596 21.888C171.175 19.6267 172.903 17.8347 174.78 16.512C176.7 15.1893 178.62 14.528 180.54 14.528C182.588 14.528 184.316 15.0827 185.724 16.192C185.938 16.3627 186.066 16.512 186.108 16.64C186.151 16.7253 186.13 16.9387 186.044 17.28L184.316 25.664C184.188 26.2613 183.911 26.56 183.484 26.56C183.015 26.56 182.738 26.24 182.652 25.6L182.332 21.056C182.204 19.0933 181.906 17.8133 181.436 17.216C181.01 16.6187 180.37 16.32 179.516 16.32C178.322 16.32 177.106 16.9173 175.868 18.112C174.631 19.264 173.479 20.8427 172.412 22.848C171.388 24.8107 170.556 27.008 169.916 29.44C169.319 31.8293 169.02 34.2613 169.02 36.736C169.02 42.112 170.77 44.8 174.268 44.8C175.932 44.8 177.426 44.032 178.748 42.496C180.114 40.96 181.372 38.5707 182.524 35.328C182.652 34.9013 182.951 34.688 183.42 34.688C183.676 34.688 183.826 34.7947 183.868 35.008C183.911 35.1787 183.868 35.5413 183.74 36.096C183.314 38.4427 182.546 40.512 181.436 42.304C180.327 44.096 179.004 45.5253 177.468 46.592C175.975 47.616 174.375 48.128 172.668 48.128ZM196.514 8.832C195.703 8.832 195.021 8.55467 194.466 8C193.954 7.40267 193.698 6.69867 193.698 5.888C193.698 4.736 194.039 3.81867 194.722 3.136C195.447 2.45333 196.258 2.112 197.154 2.112C198.007 2.112 198.711 2.38933 199.266 2.944C199.863 3.456 200.162 4.13867 200.162 4.992C200.162 6.18667 199.799 7.12533 199.074 7.808C198.349 8.49067 197.495 8.832 196.514 8.832ZM191.266 48.192C189.858 48.192 188.855 47.68 188.258 46.656C187.661 45.5893 187.639 43.8613 188.194 41.472L192.93 21.184C193.143 20.2453 193.165 19.52 192.994 19.008C192.866 18.4533 192.482 18.176 191.842 18.176C191.074 18.176 190.221 18.752 189.282 19.904C188.386 21.0133 187.362 23.1467 186.21 26.304C186.039 26.8587 185.741 27.136 185.314 27.136C184.674 27.136 184.503 26.752 184.802 25.984C185.741 23.04 186.722 20.736 187.746 19.072C188.813 17.408 189.879 16.2347 190.946 15.552C192.013 14.8693 192.994 14.528 193.89 14.528C195.383 14.528 196.429 15.0613 197.026 16.128C197.623 17.152 197.645 18.8587 197.09 21.248L192.354 41.536C192.141 42.4747 192.098 43.2213 192.226 43.776C192.397 44.288 192.802 44.544 193.442 44.544C194.21 44.544 195.042 43.9893 195.938 42.88C196.877 41.728 197.922 39.5733 199.074 36.416C199.245 35.8613 199.543 35.584 199.97 35.584C200.61 35.584 200.781 35.968 200.482 36.736C199.586 39.6373 198.583 41.9413 197.474 43.648C196.407 45.312 195.341 46.4853 194.274 47.168C193.207 47.8507 192.205 48.192 191.266 48.192ZM209.191 48.128C206.546 48.128 204.455 47.04 202.919 44.864C201.383 42.6453 200.615 39.6587 200.615 35.904C200.615 33.1307 201.063 30.464 201.959 27.904C202.855 25.344 204.029 23.0613 205.479 21.056C206.973 19.0507 208.615 17.472 210.407 16.32C212.242 15.1253 214.077 14.528 215.911 14.528C218.557 14.528 220.647 15.616 222.183 17.792C223.719 19.968 224.487 22.9547 224.487 26.752C224.487 29.5253 224.039 32.192 223.143 34.752C222.247 37.312 221.053 39.5947 219.559 41.6C218.109 43.6053 216.466 45.2053 214.631 46.4C212.839 47.552 211.026 48.128 209.191 48.128ZM209.063 46.592C210.429 46.592 211.751 45.9307 213.031 44.608C214.354 43.2853 215.549 41.536 216.615 39.36C217.682 37.184 218.535 34.7733 219.175 32.128C219.815 29.44 220.135 26.752 220.135 24.064C220.135 18.7307 218.749 16.064 215.975 16.064C214.653 16.064 213.33 16.7253 212.007 18.048C210.685 19.328 209.49 21.056 208.423 23.232C207.399 25.408 206.567 27.84 205.927 30.528C205.287 33.1733 204.967 35.84 204.967 38.528C204.967 43.904 206.333 46.592 209.063 46.592ZM212.711 10.112C211.943 10.4107 211.453 10.2827 211.239 9.728C211.069 9.30133 211.346 8.832 212.071 8.32L222.119 1.472C223.314 0.618668 224.338 0.192001 225.191 0.192001C226.045 0.192001 226.663 0.405334 227.047 0.832001C227.474 1.25867 227.687 1.77067 227.687 2.368C227.687 3.008 227.453 3.56267 226.983 4.032C226.557 4.50133 225.703 4.992 224.423 5.504L212.711 10.112ZM226.667 46.72L232.747 21.184C232.961 20.2453 232.982 19.52 232.811 19.008C232.683 18.4533 232.299 18.176 231.659 18.176C230.891 18.176 230.038 18.752 229.099 19.904C228.203 21.0133 227.179 23.1467 226.027 26.304C225.857 26.8587 225.558 27.136 225.131 27.136C224.491 27.136 224.321 26.752 224.619 25.984C225.558 23.04 226.539 20.736 227.563 19.072C228.63 17.408 229.697 16.2347 230.763 15.552C231.83 14.8693 232.811 14.528 233.707 14.528C235.115 14.528 236.118 15.0613 236.715 16.128C237.313 17.152 237.334 18.8587 236.779 21.248L235.179 28.16C235.137 28.4587 235.201 28.6293 235.371 28.672C235.542 28.7147 235.691 28.608 235.819 28.352C237.483 24.896 239.083 22.1653 240.619 20.16C242.155 18.112 243.606 16.6613 244.971 15.808C246.337 14.9547 247.574 14.528 248.683 14.528C250.262 14.528 251.414 15.168 252.139 16.448C252.865 17.728 252.865 19.6907 252.139 22.336L247.275 40.896C246.977 42.0907 246.955 42.9867 247.211 43.584C247.467 44.1813 247.937 44.48 248.619 44.48C249.473 44.48 250.305 43.9253 251.115 42.816C251.969 41.664 252.843 39.5093 253.739 36.352C253.867 35.8827 254.145 35.648 254.571 35.648C254.913 35.648 255.105 35.776 255.147 36.032C255.233 36.288 255.233 36.5867 255.147 36.928C254.337 39.8293 253.462 42.112 252.523 43.776C251.585 45.3973 250.625 46.528 249.643 47.168C248.705 47.808 247.745 48.128 246.763 48.128C245.227 48.128 244.075 47.488 243.307 46.208C242.539 44.928 242.497 42.944 243.179 40.256L248.107 21.696C248.577 20.032 248.641 18.88 248.299 18.24C248.001 17.6 247.553 17.28 246.955 17.28C246.017 17.28 244.95 17.8773 243.755 19.072C242.561 20.224 241.345 21.824 240.107 23.872C238.87 25.8773 237.654 28.16 236.459 30.72C235.265 33.28 234.177 35.9467 233.195 38.72C232.257 41.4933 231.489 44.2027 230.891 46.848C230.763 47.3173 230.465 47.552 229.995 47.552H227.371C226.774 47.552 226.539 47.2747 226.667 46.72ZM260.997 47.552C260.4 47.552 260.101 47.3387 260.101 46.912C260.101 46.4427 260.528 46.144 261.381 46.016L262.661 45.824C263.6 45.696 264.24 45.4827 264.581 45.184C264.965 44.8427 265.243 44.224 265.413 43.328L274.117 5.696C274.288 4.97067 274.309 4.416 274.181 4.032C274.053 3.648 273.499 3.37067 272.517 3.2L271.237 2.944C270.683 2.816 270.405 2.58133 270.405 2.24C270.405 1.728 270.789 1.472 271.557 1.472H284.037C287.579 1.472 290.288 2.432 292.165 4.352C294.043 6.272 294.981 8.68267 294.981 11.584C294.981 14.272 294.277 16.768 292.869 19.072C291.504 21.3333 289.584 23.168 287.109 24.576C284.677 25.984 281.819 26.688 278.533 26.688H274.757C274.075 26.688 273.627 27.0507 273.413 27.776L269.829 43.072C269.616 44.0107 269.659 44.6507 269.957 44.992C270.299 45.3333 271.003 45.568 272.069 45.696L275.141 46.08C275.525 46.1227 275.717 46.336 275.717 46.72C275.717 47.2747 275.333 47.552 274.565 47.552H260.997ZM274.885 21.568C274.629 22.6773 274.736 23.552 275.205 24.192C275.717 24.7893 276.763 25.088 278.341 25.088C280.475 25.088 282.288 24.64 283.781 23.744C285.317 22.848 286.555 21.696 287.493 20.288C288.475 18.8373 289.179 17.3013 289.605 15.68C290.075 14.016 290.309 12.4373 290.309 10.944C290.309 8.59733 289.691 6.69867 288.453 5.248C287.216 3.79733 285.403 3.072 283.013 3.072C280.411 3.072 278.917 3.92533 278.533 5.632L274.885 21.568ZM293.941 47.552C293.344 47.552 293.109 47.2747 293.237 46.72L299.317 21.184C299.531 20.2453 299.552 19.52 299.381 19.008C299.253 18.4533 298.869 18.176 298.229 18.176C297.461 18.176 296.608 18.752 295.669 19.904C294.773 21.0133 293.749 23.1467 292.597 26.304C292.427 26.8587 292.128 27.136 291.701 27.136C291.061 27.136 290.891 26.752 291.189 25.984C292.128 23.04 293.109 20.736 294.133 19.072C295.2 17.408 296.267 16.2347 297.333 15.552C298.4 14.8693 299.381 14.528 300.277 14.528C301.685 14.528 302.688 15.0613 303.285 16.128C303.883 17.152 303.904 18.8587 303.349 21.248L302.645 24.256C302.603 24.5547 302.667 24.7253 302.837 24.768C303.008 24.8107 303.157 24.704 303.285 24.448C304.907 20.736 306.379 18.1547 307.701 16.704C309.024 15.2533 310.539 14.528 312.245 14.528C313.397 14.528 314.251 14.848 314.805 15.488C315.403 16.0853 315.701 16.9173 315.701 17.984C315.701 19.0507 315.445 19.904 314.933 20.544C314.421 21.184 313.76 21.504 312.949 21.504C312.267 21.504 311.776 21.3333 311.477 20.992C311.179 20.6507 310.944 20.2667 310.773 19.84C310.645 19.3707 310.496 18.9653 310.325 18.624C310.155 18.2827 309.877 18.112 309.493 18.112C308.853 18.112 308.021 18.9227 306.997 20.544C305.973 22.1653 304.864 24.3627 303.669 27.136C302.517 29.8667 301.387 32.9387 300.277 36.352C299.211 39.7653 298.272 43.264 297.461 46.848C297.333 47.3173 297.035 47.552 296.565 47.552H293.941ZM317.979 48.128C315.718 48.128 313.904 47.2533 312.539 45.504C311.174 43.712 310.491 41.1947 310.491 37.952C310.491 35.136 310.982 32.3413 311.963 29.568C312.987 26.7947 314.31 24.2773 315.931 22.016C317.552 19.7547 319.323 17.9413 321.243 16.576C323.206 15.2107 325.104 14.528 326.939 14.528C328.944 14.528 330.374 15.0187 331.227 16C332.123 16.9387 332.571 18.2187 332.571 19.84C332.571 21.76 331.888 23.68 330.523 25.6C329.2 27.4773 327.323 29.1627 324.891 30.656C322.502 32.1493 319.686 33.2587 316.443 33.984C315.504 34.1973 315.014 34.7307 314.971 35.584C314.928 35.8827 314.907 36.2027 314.907 36.544C314.907 36.8427 314.907 37.1413 314.907 37.44C314.907 39.872 315.312 41.7067 316.123 42.944C316.976 44.1813 318.128 44.8 319.579 44.8C321.2 44.8 322.758 44.0533 324.251 42.56C325.787 41.0667 327.067 38.9547 328.091 36.224C328.219 35.84 328.475 35.648 328.859 35.648C329.115 35.648 329.264 35.7547 329.307 35.968C329.392 36.1813 329.392 36.4373 329.307 36.736C327.942 40.4907 326.278 43.328 324.315 45.248C322.395 47.168 320.283 48.128 317.979 48.128ZM315.611 31.552C315.526 31.8507 315.568 32.1067 315.739 32.32C315.952 32.4907 316.208 32.5333 316.507 32.448C319.152 31.7227 321.371 30.6347 323.163 29.184C324.955 27.6907 326.299 26.0267 327.195 24.192C328.134 22.3573 328.603 20.5653 328.603 18.816C328.603 17.024 327.899 16.128 326.491 16.128C325.254 16.128 323.91 16.8533 322.459 18.304C321.008 19.7547 319.664 21.6533 318.427 24C317.19 26.3467 316.251 28.864 315.611 31.552ZM336.837 48.128C335.429 48.128 333.936 47.9147 332.357 47.488C330.821 47.0613 329.648 46.528 328.837 45.888C328.538 45.632 328.41 45.248 328.453 44.736L329.861 36.352C329.946 35.7973 330.202 35.52 330.629 35.52C331.098 35.52 331.333 35.8187 331.333 36.416L331.461 39.488C331.546 41.92 332.122 43.712 333.189 44.864C334.298 45.9733 335.642 46.528 337.221 46.528C338.586 46.528 339.76 46.1013 340.741 45.248C341.722 44.352 342.213 43.0507 342.213 41.344C342.213 40.3627 342.064 39.4667 341.765 38.656C341.466 37.8027 340.997 36.9067 340.357 35.968C339.717 34.9867 338.842 33.8133 337.733 32.448C336.282 30.5707 335.194 28.9707 334.469 27.648C333.786 26.2827 333.445 24.8747 333.445 23.424C333.445 20.736 334.277 18.5813 335.941 16.96C337.648 15.3387 339.802 14.528 342.405 14.528C343.557 14.528 344.666 14.6987 345.733 15.04C346.842 15.3813 347.76 15.8933 348.485 16.576C348.869 16.8747 348.997 17.2587 348.869 17.728L347.077 26.304C346.949 26.8587 346.693 27.136 346.309 27.136C345.925 27.136 345.69 26.8373 345.605 26.24L345.413 23.168C345.242 20.608 344.901 18.7733 344.389 17.664C343.92 16.5547 342.917 16 341.381 16C340.016 16 338.906 16.4693 338.053 17.408C337.2 18.3467 336.773 19.4773 336.773 20.8C336.773 22.208 337.157 23.5093 337.925 24.704C338.693 25.856 339.738 27.328 341.061 29.12C342.81 31.424 343.984 33.2587 344.581 34.624C345.221 35.9893 345.541 37.376 345.541 38.784C345.541 40.576 345.136 42.176 344.325 43.584C343.557 44.992 342.512 46.1013 341.189 46.912C339.866 47.7227 338.416 48.128 336.837 48.128ZM354.421 48.128C352.16 48.128 350.347 47.2533 348.981 45.504C347.616 43.712 346.933 41.1947 346.933 37.952C346.933 35.136 347.424 32.3413 348.405 29.568C349.429 26.7947 350.752 24.2773 352.373 22.016C353.995 19.7547 355.765 17.9413 357.685 16.576C359.648 15.2107 361.547 14.528 363.381 14.528C365.387 14.528 366.816 15.0187 367.669 16C368.565 16.9387 369.013 18.2187 369.013 19.84C369.013 21.76 368.331 23.68 366.965 25.6C365.643 27.4773 363.765 29.1627 361.333 30.656C358.944 32.1493 356.128 33.2587 352.885 33.984C351.947 34.1973 351.456 34.7307 351.413 35.584C351.371 35.8827 351.349 36.2027 351.349 36.544C351.349 36.8427 351.349 37.1413 351.349 37.44C351.349 39.872 351.755 41.7067 352.565 42.944C353.419 44.1813 354.571 44.8 356.021 44.8C357.643 44.8 359.2 44.0533 360.693 42.56C362.229 41.0667 363.509 38.9547 364.533 36.224C364.661 35.84 364.917 35.648 365.301 35.648C365.557 35.648 365.707 35.7547 365.749 35.968C365.835 36.1813 365.835 36.4373 365.749 36.736C364.384 40.4907 362.72 43.328 360.757 45.248C358.837 47.168 356.725 48.128 354.421 48.128ZM352.053 31.552C351.968 31.8507 352.011 32.1067 352.181 32.32C352.395 32.4907 352.651 32.5333 352.949 32.448C355.595 31.7227 357.813 30.6347 359.605 29.184C361.397 27.6907 362.741 26.0267 363.637 24.192C364.576 22.3573 365.045 20.5653 365.045 18.816C365.045 17.024 364.341 16.128 362.933 16.128C361.696 16.128 360.352 16.8533 358.901 18.304C357.451 19.7547 356.107 21.6533 354.869 24C353.632 26.3467 352.693 28.864 352.053 31.552ZM369.247 46.72L375.327 21.184C375.541 20.2453 375.562 19.52 375.391 19.008C375.263 18.4533 374.88 18.176 374.24 18.176C373.471 18.176 372.618 18.752 371.679 19.904C370.783 21.0133 369.759 23.1467 368.607 26.304C368.437 26.8587 368.138 27.136 367.711 27.136C367.071 27.136 366.901 26.752 367.199 25.984C368.138 23.04 369.119 20.736 370.143 19.072C371.21 17.408 372.277 16.2347 373.343 15.552C374.41 14.8693 375.391 14.528 376.287 14.528C377.695 14.528 378.698 15.0613 379.295 16.128C379.893 17.152 379.914 18.8587 379.359 21.248L377.759 28.16C377.717 28.4587 377.781 28.6293 377.951 28.672C378.122 28.7147 378.271 28.608 378.399 28.352C380.064 24.896 381.664 22.1653 383.2 20.16C384.736 18.112 386.186 16.6613 387.552 15.808C388.917 14.9547 390.154 14.528 391.264 14.528C392.842 14.528 393.994 15.168 394.72 16.448C395.445 17.728 395.445 19.6907 394.72 22.336L389.856 40.896C389.557 42.0907 389.536 42.9867 389.792 43.584C390.048 44.1813 390.517 44.48 391.2 44.48C392.053 44.48 392.885 43.9253 393.696 42.816C394.549 41.664 395.424 39.5093 396.319 36.352C396.448 35.8827 396.725 35.648 397.152 35.648C397.493 35.648 397.685 35.776 397.728 36.032C397.813 36.288 397.813 36.5867 397.728 36.928C396.917 39.8293 396.042 42.112 395.104 43.776C394.165 45.3973 393.205 46.528 392.224 47.168C391.285 47.808 390.325 48.128 389.344 48.128C387.808 48.128 386.656 47.488 385.888 46.208C385.12 44.928 385.077 42.944 385.76 40.256L390.688 21.696C391.157 20.032 391.221 18.88 390.88 18.24C390.581 17.6 390.133 17.28 389.535 17.28C388.597 17.28 387.53 17.8773 386.336 19.072C385.141 20.224 383.925 21.824 382.688 23.872C381.45 25.8773 380.234 28.16 379.04 30.72C377.845 33.28 376.757 35.9467 375.775 38.72C374.837 41.4933 374.069 44.2027 373.471 46.848C373.343 47.3173 373.045 47.552 372.575 47.552H369.951C369.354 47.552 369.119 47.2747 369.247 46.72ZM405.759 48.128C403.412 48.128 401.471 47.168 399.935 45.248C398.399 43.2853 397.631 40.7893 397.631 37.76C397.631 34.9013 398.079 32.1067 398.975 29.376C399.913 26.6027 401.151 24.1067 402.687 21.888C404.265 19.6267 405.993 17.8347 407.871 16.512C409.791 15.1893 411.711 14.528 413.631 14.528C415.679 14.528 417.407 15.0827 418.815 16.192C419.028 16.3627 419.156 16.512 419.199 16.64C419.241 16.7253 419.22 16.9387 419.135 17.28L417.407 25.664C417.279 26.2613 417.001 26.56 416.575 26.56C416.105 26.56 415.828 26.24 415.743 25.6L415.423 21.056C415.295 19.0933 414.996 17.8133 414.527 17.216C414.1 16.6187 413.46 16.32 412.607 16.32C411.412 16.32 410.196 16.9173 408.959 18.112C407.721 19.264 406.569 20.8427 405.503 22.848C404.479 24.8107 403.647 27.008 403.007 29.44C402.409 31.8293 402.111 34.2613 402.111 36.736C402.111 42.112 403.86 44.8 407.359 44.8C409.023 44.8 410.516 44.032 411.839 42.496C413.204 40.96 414.463 38.5707 415.615 35.328C415.743 34.9013 416.041 34.688 416.511 34.688C416.767 34.688 416.916 34.7947 416.959 35.008C417.001 35.1787 416.959 35.5413 416.831 36.096C416.404 38.4427 415.636 40.512 414.527 42.304C413.417 44.096 412.095 45.5253 410.559 46.592C409.065 47.616 407.465 48.128 405.759 48.128ZM429.604 8.832C428.793 8.832 428.111 8.55467 427.556 8C427.044 7.40267 426.788 6.69867 426.788 5.888C426.788 4.736 427.129 3.81867 427.812 3.136C428.537 2.45333 429.348 2.112 430.244 2.112C431.097 2.112 431.801 2.38933 432.356 2.944C432.953 3.456 433.252 4.13867 433.252 4.992C433.252 6.18667 432.889 7.12533 432.164 7.808C431.439 8.49067 430.585 8.832 429.604 8.832ZM424.356 48.192C422.948 48.192 421.945 47.68 421.348 46.656C420.751 45.5893 420.729 43.8613 421.284 41.472L426.02 21.184C426.233 20.2453 426.255 19.52 426.084 19.008C425.956 18.4533 425.572 18.176 424.932 18.176C424.164 18.176 423.311 18.752 422.372 19.904C421.476 21.0133 420.452 23.1467 419.3 26.304C419.129 26.8587 418.831 27.136 418.404 27.136C417.764 27.136 417.593 26.752 417.892 25.984C418.831 23.04 419.812 20.736 420.836 19.072C421.903 17.408 422.969 16.2347 424.036 15.552C425.103 14.8693 426.084 14.528 426.98 14.528C428.473 14.528 429.519 15.0613 430.116 16.128C430.713 17.152 430.735 18.8587 430.18 21.248L425.444 41.536C425.231 42.4747 425.188 43.2213 425.316 43.776C425.487 44.288 425.892 44.544 426.532 44.544C427.3 44.544 428.132 43.9893 429.028 42.88C429.967 41.728 431.012 39.5733 432.164 36.416C432.335 35.8613 432.633 35.584 433.06 35.584C433.7 35.584 433.871 35.968 433.572 36.736C432.676 39.6373 431.673 41.9413 430.564 43.648C429.497 45.312 428.431 46.4853 427.364 47.168C426.297 47.8507 425.295 48.192 424.356 48.192ZM438.121 48.128C436.585 48.128 435.391 47.4667 434.537 46.144C433.684 44.8213 433.257 42.88 433.257 40.32C433.257 37.888 433.599 35.456 434.281 33.024C434.964 30.5493 435.903 28.2027 437.097 25.984C438.292 23.7653 439.636 21.8027 441.129 20.096C442.665 18.3893 444.265 17.0453 445.929 16.064C447.636 15.04 449.321 14.528 450.985 14.528C451.796 14.528 452.564 14.6987 453.289 15.04C454.015 15.3387 454.612 15.8293 455.081 16.512C455.337 16.896 455.593 17.088 455.849 17.088C456.105 17.088 456.361 16.896 456.617 16.512C457.087 15.8293 457.471 15.4027 457.769 15.232C458.068 15.0187 458.345 14.912 458.601 14.912C459.156 14.912 459.369 15.2107 459.241 15.808L453.545 40.32C452.905 43.0933 453.332 44.48 454.825 44.48C455.807 44.48 456.681 43.8187 457.449 42.496C458.26 41.1733 459.071 39.1253 459.881 36.352C460.009 35.8827 460.287 35.648 460.713 35.648C461.012 35.648 461.204 35.776 461.289 36.032C461.375 36.288 461.375 36.5867 461.289 36.928C460.479 40.9387 459.391 43.8187 458.025 45.568C456.66 47.2747 455.017 48.128 453.097 48.128C451.433 48.128 450.239 47.424 449.513 46.016C448.831 44.608 448.767 42.688 449.321 40.256L450.153 36.736C450.239 36.4373 450.175 36.2667 449.961 36.224C449.791 36.1813 449.641 36.288 449.513 36.544C447.167 40.8533 445.076 43.8613 443.241 45.568C441.449 47.2747 439.743 48.128 438.121 48.128ZM439.721 44.864C440.745 44.864 441.876 44.2453 443.113 43.008C444.351 41.7707 445.567 40.1707 446.761 38.208C447.999 36.2453 449.129 34.1333 450.153 31.872C451.177 29.6107 451.988 27.4347 452.585 25.344C453.225 23.2533 453.545 21.4827 453.545 20.032C453.545 17.4293 452.628 16.128 450.793 16.128C449.684 16.128 448.511 16.64 447.273 17.664C446.036 18.6453 444.841 19.9893 443.689 21.696C442.58 23.4027 441.556 25.344 440.617 27.52C439.721 29.6533 438.996 31.8933 438.441 34.24C437.887 36.544 437.609 38.8053 437.609 41.024C437.609 42.5173 437.78 43.5413 438.121 44.096C438.505 44.608 439.039 44.864 439.721 44.864ZM464.914 48.192C463.506 48.192 462.503 47.68 461.906 46.656C461.309 45.5893 461.287 43.8613 461.842 41.472L469.97 6.592C470.183 5.824 470.183 5.29067 469.97 4.992C469.799 4.69333 469.415 4.52267 468.818 4.48L466.898 4.288C466.258 4.24533 465.981 3.968 466.066 3.456C466.151 3.072 466.45 2.83733 466.962 2.752C468.498 2.496 469.863 2.19733 471.058 1.856C472.253 1.472 473.213 0.981332 473.938 0.383999C474.279 0.128 474.599 0 474.898 0C475.41 0 475.602 0.32 475.474 0.959999L466.002 41.536C465.789 42.4747 465.746 43.2213 465.874 43.776C466.045 44.288 466.45 44.544 467.09 44.544C467.858 44.544 468.69 43.9893 469.586 42.88C470.525 41.728 471.57 39.5733 472.722 36.416C472.893 35.8613 473.191 35.584 473.618 35.584C474.258 35.584 474.429 35.968 474.13 36.736C473.234 39.6373 472.231 41.9413 471.122 43.648C470.055 45.312 468.989 46.4853 467.922 47.168C466.855 47.8507 465.853 48.192 464.914 48.192Z" fill="white"/>
</svg>
