<svg width="252" height="60" viewBox="0 0 252 60" fill="none" xmlns="http://www.w3.org/2000/svg">
<path d="M10.816 47.296C7.48802 47.296 4.84269 45.9306 2.88002 43.2C0.960022 40.4693 2.16961e-05 36.4586 2.16961e-05 31.168C2.16961e-05 28.0106 0.362688 24.9173 1.08802 21.888C1.81336 18.8586 2.81602 16.0426 4.09602 13.44C5.37602 10.7946 6.84802 8.4693 8.51202 6.46397C10.2187 4.41597 12.032 2.8373 13.952 1.72797C15.9147 0.57597 17.92 -3.05176e-05 19.968 -3.05176e-05C23.296 -3.05176e-05 25.92 1.3653 27.84 4.09597C29.8027 6.78397 30.784 10.7946 30.784 16.128C30.784 19.2853 30.4214 22.3786 29.696 25.408C28.9707 28.4373 27.968 31.2746 26.688 33.92C25.408 36.5226 23.9147 38.848 22.208 40.896C20.544 42.9013 18.7307 44.48 16.768 45.632C14.848 46.7413 12.864 47.296 10.816 47.296ZM10.688 45.632C12.2667 45.632 13.8027 45.0133 15.296 43.776C16.832 42.496 18.2614 40.768 19.584 38.592C20.9494 36.3733 22.144 33.8346 23.168 30.976C24.192 28.0746 24.9814 25.0026 25.536 21.76C26.1334 18.5173 26.432 15.232 26.432 11.904C26.432 5.0773 24.32 1.66397 20.096 1.66397C18.5174 1.66397 16.96 2.30397 15.424 3.58397C13.9307 4.8213 12.5014 6.5493 11.136 8.76797C9.81336 10.944 8.64002 13.4826 7.61602 16.384C6.59202 19.2426 5.78136 22.2933 5.18402 25.536C4.62936 28.7786 4.35202 32.064 4.35202 35.392C4.35202 42.2186 6.46402 45.632 10.688 45.632ZM23.6825 59.84C23.1279 59.84 22.8505 59.6053 22.8505 59.136C22.8505 58.7093 23.1919 58.4533 23.8745 58.368L24.7705 58.24C25.6239 58.112 26.2639 57.856 26.6905 57.472C27.0745 57.1306 27.3732 56.4906 27.5865 55.552L36.0985 18.816C36.1839 18.4746 36.1199 18.2186 35.9065 18.048C35.7359 17.8346 35.4799 17.8346 35.1385 18.048C34.7119 18.2613 34.3065 18.496 33.9225 18.752C33.5385 18.9653 33.1545 19.2 32.7705 19.456C32.3865 19.712 32.0665 19.7973 31.8105 19.712C31.5545 19.584 31.4265 19.3706 31.4265 19.072C31.4265 18.7733 31.6399 18.4746 32.0665 18.176C33.2612 17.3653 34.4985 16.6613 35.7785 16.064C36.5039 15.7226 36.9519 15.168 37.1225 14.4L37.9545 10.752C38.1679 9.85597 38.7225 9.40797 39.6185 9.40797H40.7705C41.2825 9.40797 41.6665 9.5573 41.9225 9.85597C42.1785 10.1546 42.2425 10.5813 42.1145 11.136L41.6665 12.992C41.5385 13.7173 41.8159 14.016 42.4985 13.888C43.4799 13.76 44.4185 13.696 45.3145 13.696C48.4719 13.696 51.0532 14.592 53.0585 16.384C55.0639 18.176 56.0665 20.928 56.0665 24.64C56.0665 27.5413 55.5332 30.3573 54.4665 33.088C53.3999 35.776 51.9919 38.1866 50.2425 40.32C48.4932 42.4533 46.5732 44.16 44.4825 45.44C42.3919 46.6773 40.3012 47.296 38.2105 47.296C37.0585 47.296 35.9705 47.0613 34.9465 46.592C34.3065 46.2933 33.9225 46.464 33.7945 47.104L31.8745 55.552C31.6612 56.4906 31.6612 57.1093 31.8745 57.408C32.1305 57.7066 32.6639 57.92 33.4745 58.048L35.1385 58.304C35.9065 58.432 36.2905 58.688 36.2905 59.072C36.2905 59.584 35.9279 59.84 35.2025 59.84H23.6825ZM35.5865 39.36C34.8185 43.584 35.7359 45.696 38.3385 45.696C39.8319 45.696 41.3465 45.0773 42.8825 43.84C44.4185 42.56 45.8479 40.8746 47.1705 38.784C48.4932 36.6506 49.5599 34.2613 50.3705 31.616C51.1812 28.9706 51.5865 26.2613 51.5865 23.488C51.5865 20.6293 50.9679 18.5813 49.7305 17.344C48.4932 16.064 46.6799 15.424 44.2905 15.424C42.1572 15.424 40.9412 16.1493 40.6425 17.6L35.5865 39.36ZM63.055 47.296C60.7937 47.296 58.9804 46.4213 57.615 44.672C56.2497 42.88 55.567 40.3626 55.567 37.12C55.567 34.304 56.0577 31.5093 57.039 28.736C58.063 25.9626 59.3857 23.4453 61.007 21.184C62.6284 18.9226 64.399 17.1093 66.319 15.744C68.2817 14.3786 70.1804 13.696 72.015 13.696C74.0204 13.696 75.4497 14.1866 76.303 15.168C77.199 16.1066 77.647 17.3866 77.647 19.008C77.647 20.928 76.9644 22.848 75.599 24.768C74.2764 26.6453 72.399 28.3306 69.967 29.824C67.5777 31.3173 64.7617 32.4266 61.519 33.152C60.5804 33.3653 60.0897 33.8986 60.047 34.752C60.0044 35.0506 59.983 35.3706 59.983 35.712C59.983 36.0106 59.983 36.3093 59.983 36.608C59.983 39.04 60.3884 40.8746 61.199 42.112C62.0524 43.3493 63.2044 43.968 64.655 43.968C66.2764 43.968 67.8337 43.2213 69.327 41.728C70.863 40.2346 72.143 38.1226 73.167 35.392C73.295 35.008 73.551 34.816 73.935 34.816C74.191 34.816 74.3404 34.9226 74.383 35.136C74.4684 35.3493 74.4684 35.6053 74.383 35.904C73.0177 39.6586 71.3537 42.496 69.391 44.416C67.471 46.336 65.359 47.296 63.055 47.296ZM60.687 30.72C60.6017 31.0186 60.6444 31.2746 60.815 31.488C61.0284 31.6586 61.2844 31.7013 61.583 31.616C64.2284 30.8906 66.447 29.8026 68.239 28.352C70.031 26.8586 71.375 25.1946 72.271 23.36C73.2097 21.5253 73.679 19.7333 73.679 17.984C73.679 16.192 72.975 15.296 71.567 15.296C70.3297 15.296 68.9857 16.0213 67.535 17.472C66.0844 18.9226 64.7404 20.8213 63.503 23.168C62.2657 25.5146 61.327 28.032 60.687 30.72ZM78.585 46.72C77.9877 46.72 77.753 46.4426 77.881 45.888L83.961 20.352C84.1744 19.4133 84.1957 18.688 84.025 18.176C83.897 17.6213 83.513 17.344 82.873 17.344C82.105 17.344 81.2517 17.92 80.313 19.072C79.417 20.1813 78.393 22.3146 77.241 25.472C77.0704 26.0266 76.7717 26.304 76.345 26.304C75.705 26.304 75.5344 25.92 75.833 25.152C76.7717 22.208 77.753 19.904 78.777 18.24C79.8437 16.576 80.9104 15.4026 81.977 14.72C83.0437 14.0373 84.025 13.696 84.921 13.696C86.329 13.696 87.3317 14.2293 87.929 15.296C88.5264 16.32 88.5477 18.0266 87.993 20.416L87.289 23.424C87.2464 23.7226 87.3104 23.8933 87.481 23.936C87.6517 23.9786 87.801 23.872 87.929 23.616C89.5504 19.904 91.0224 17.3226 92.345 15.872C93.6677 14.4213 95.1824 13.696 96.889 13.696C98.041 13.696 98.8944 14.016 99.449 14.656C100.046 15.2533 100.345 16.0853 100.345 17.152C100.345 18.2186 100.089 19.072 99.577 19.712C99.065 20.352 98.4037 20.672 97.593 20.672C96.9104 20.672 96.4197 20.5013 96.121 20.16C95.8224 19.8186 95.5877 19.4346 95.417 19.008C95.289 18.5386 95.1397 18.1333 94.969 17.792C94.7984 17.4506 94.521 17.28 94.137 17.28C93.497 17.28 92.665 18.0906 91.641 19.712C90.617 21.3333 89.5077 23.5306 88.313 26.304C87.161 29.0346 86.0304 32.1066 84.921 35.52C83.8544 38.9333 82.9157 42.432 82.105 46.016C81.977 46.4853 81.6784 46.72 81.209 46.72H78.585ZM100.063 47.296C98.5265 47.296 97.3319 46.6346 96.4785 45.312C95.6252 43.9893 95.1985 42.048 95.1985 39.488C95.1985 37.056 95.5399 34.624 96.2225 32.192C96.9052 29.7173 97.8439 27.3706 99.0385 25.152C100.233 22.9333 101.577 20.9706 103.071 19.264C104.607 17.5573 106.207 16.2133 107.871 15.232C109.577 14.208 111.263 13.696 112.927 13.696C113.737 13.696 114.505 13.8666 115.231 14.208C115.956 14.5066 116.553 14.9973 117.023 15.68C117.279 16.064 117.535 16.256 117.791 16.256C118.047 16.256 118.303 16.064 118.559 15.68C119.028 14.9973 119.412 14.5706 119.711 14.4C120.009 14.1866 120.287 14.08 120.543 14.08C121.097 14.08 121.311 14.3786 121.183 14.976L115.487 39.488C114.847 42.2613 115.273 43.648 116.767 43.648C117.748 43.648 118.623 42.9866 119.391 41.664C120.201 40.3413 121.012 38.2933 121.823 35.52C121.951 35.0506 122.228 34.816 122.655 34.816C122.953 34.816 123.145 34.944 123.231 35.2C123.316 35.456 123.316 35.7546 123.231 36.096C122.42 40.1066 121.332 42.9866 119.967 44.736C118.601 46.4426 116.959 47.296 115.039 47.296C113.375 47.296 112.18 46.592 111.455 45.184C110.772 43.776 110.708 41.856 111.263 39.424L112.095 35.904C112.18 35.6053 112.116 35.4346 111.903 35.392C111.732 35.3493 111.583 35.456 111.455 35.712C109.108 40.0213 107.017 43.0293 105.183 44.736C103.391 46.4426 101.684 47.296 100.063 47.296ZM101.663 44.032C102.687 44.032 103.817 43.4133 105.055 42.176C106.292 40.9386 107.508 39.3386 108.703 37.376C109.94 35.4133 111.071 33.3013 112.095 31.04C113.119 28.7786 113.929 26.6026 114.527 24.512C115.167 22.4213 115.487 20.6506 115.487 19.2C115.487 16.5973 114.569 15.296 112.735 15.296C111.625 15.296 110.452 15.808 109.215 16.832C107.977 17.8133 106.783 19.1573 105.631 20.864C104.521 22.5706 103.497 24.512 102.559 26.688C101.663 28.8213 100.937 31.0613 100.383 33.408C99.8279 35.712 99.5505 37.9733 99.5505 40.192C99.5505 41.6853 99.7212 42.7093 100.063 43.264C100.447 43.776 100.98 44.032 101.663 44.032ZM131.207 47.296C128.86 47.296 126.919 46.336 125.383 44.416C123.847 42.4533 123.079 39.9573 123.079 36.928C123.079 34.0693 123.527 31.2746 124.423 28.544C125.362 25.7706 126.599 23.2746 128.135 21.056C129.714 18.7946 131.442 17.0026 133.319 15.68C135.239 14.3573 137.159 13.696 139.079 13.696C141.127 13.696 142.855 14.2506 144.263 15.36C144.476 15.5306 144.604 15.68 144.647 15.808C144.69 15.8933 144.668 16.1066 144.583 16.448L142.855 24.832C142.727 25.4293 142.45 25.728 142.023 25.728C141.554 25.728 141.276 25.408 141.191 24.768L140.871 20.224C140.743 18.2613 140.444 16.9813 139.975 16.384C139.548 15.7866 138.908 15.488 138.055 15.488C136.86 15.488 135.644 16.0853 134.407 17.28C133.17 18.432 132.018 20.0106 130.951 22.016C129.927 23.9786 129.095 26.176 128.455 28.608C127.858 30.9973 127.559 33.4293 127.559 35.904C127.559 41.28 129.308 43.968 132.807 43.968C134.471 43.968 135.964 43.2 137.287 41.664C138.652 40.128 139.911 37.7386 141.063 34.496C141.191 34.0693 141.49 33.856 141.959 33.856C142.215 33.856 142.364 33.9626 142.407 34.176C142.45 34.3466 142.407 34.7093 142.279 35.264C141.852 37.6106 141.084 39.68 139.975 41.472C138.866 43.264 137.543 44.6933 136.007 45.76C134.514 46.784 132.914 47.296 131.207 47.296ZM155.053 7.99997C154.242 7.99997 153.559 7.72264 153.005 7.16797C152.493 6.57064 152.237 5.86664 152.237 5.05597C152.237 3.90397 152.578 2.98664 153.261 2.30397C153.986 1.6213 154.797 1.27997 155.693 1.27997C156.546 1.27997 157.25 1.5573 157.805 2.11197C158.402 2.62397 158.701 3.30663 158.701 4.15997C158.701 5.35464 158.338 6.2933 157.613 6.97597C156.887 7.65864 156.034 7.99997 155.053 7.99997ZM149.805 47.36C148.397 47.36 147.394 46.848 146.797 45.824C146.199 44.7573 146.178 43.0293 146.733 40.64L151.469 20.352C151.682 19.4133 151.703 18.688 151.533 18.176C151.405 17.6213 151.021 17.344 150.381 17.344C149.613 17.344 148.759 17.92 147.821 19.072C146.925 20.1813 145.901 22.3146 144.749 25.472C144.578 26.0266 144.279 26.304 143.853 26.304C143.213 26.304 143.042 25.92 143.341 25.152C144.279 22.208 145.261 19.904 146.285 18.24C147.351 16.576 148.418 15.4026 149.485 14.72C150.551 14.0373 151.533 13.696 152.429 13.696C153.922 13.696 154.967 14.2293 155.565 15.296C156.162 16.32 156.183 18.0266 155.629 20.416L150.893 40.704C150.679 41.6426 150.637 42.3893 150.765 42.944C150.935 43.456 151.341 43.712 151.981 43.712C152.749 43.712 153.581 43.1573 154.477 42.048C155.415 40.896 156.461 38.7413 157.613 35.584C157.783 35.0293 158.082 34.752 158.509 34.752C159.149 34.752 159.319 35.136 159.021 35.904C158.125 38.8053 157.122 41.1093 156.013 42.816C154.946 44.48 153.879 45.6533 152.813 46.336C151.746 47.0186 150.743 47.36 149.805 47.36ZM167.73 47.296C165.085 47.296 162.994 46.208 161.458 44.032C159.922 41.8133 159.154 38.8266 159.154 35.072C159.154 32.2986 159.602 29.632 160.498 27.072C161.394 24.512 162.567 22.2293 164.018 20.224C165.511 18.2186 167.154 16.64 168.946 15.488C170.781 14.2933 172.615 13.696 174.45 13.696C177.095 13.696 179.186 14.784 180.722 16.96C182.258 19.136 183.026 22.1226 183.026 25.92C183.026 28.6933 182.578 31.36 181.682 33.92C180.786 36.48 179.591 38.7626 178.098 40.768C176.647 42.7733 175.005 44.3733 173.17 45.568C171.378 46.72 169.565 47.296 167.73 47.296ZM167.602 45.76C168.967 45.76 170.29 45.0986 171.57 43.776C172.893 42.4533 174.087 40.704 175.154 38.528C176.221 36.352 177.074 33.9413 177.714 31.296C178.354 28.608 178.674 25.92 178.674 23.232C178.674 17.8986 177.287 15.232 174.514 15.232C173.191 15.232 171.869 15.8933 170.546 17.216C169.223 18.496 168.029 20.224 166.962 22.4C165.938 24.576 165.106 27.008 164.466 29.696C163.826 32.3413 163.506 35.008 163.506 37.696C163.506 43.072 164.871 45.76 167.602 45.76ZM185.206 45.888L191.286 20.352C191.499 19.4133 191.521 18.688 191.35 18.176C191.222 17.6213 190.838 17.344 190.198 17.344C189.43 17.344 188.577 17.92 187.638 19.072C186.742 20.1813 185.718 22.3146 184.566 25.472C184.395 26.0266 184.097 26.304 183.67 26.304C183.03 26.304 182.859 25.92 183.158 25.152C184.097 22.208 185.078 19.904 186.102 18.24C187.169 16.576 188.235 15.4026 189.302 14.72C190.369 14.0373 191.35 13.696 192.246 13.696C193.654 13.696 194.657 14.2293 195.254 15.296C195.851 16.32 195.873 18.0266 195.318 20.416L193.718 27.328C193.675 27.6266 193.739 27.7973 193.91 27.84C194.081 27.8826 194.23 27.776 194.358 27.52C196.022 24.064 197.622 21.3333 199.158 19.328C200.694 17.28 202.145 15.8293 203.51 14.976C204.875 14.1226 206.113 13.696 207.222 13.696C208.801 13.696 209.953 14.336 210.678 15.616C211.403 16.896 211.403 18.8586 210.678 21.504L205.814 40.064C205.515 41.2586 205.494 42.1546 205.75 42.752C206.006 43.3493 206.475 43.648 207.158 43.648C208.011 43.648 208.843 43.0933 209.654 41.984C210.507 40.832 211.382 38.6773 212.278 35.52C212.406 35.0506 212.683 34.816 213.11 34.816C213.451 34.816 213.643 34.944 213.686 35.2C213.771 35.456 213.771 35.7546 213.686 36.096C212.875 38.9973 212.001 41.28 211.062 42.944C210.123 44.5653 209.163 45.696 208.182 46.336C207.243 46.976 206.283 47.296 205.302 47.296C203.766 47.296 202.614 46.656 201.846 45.376C201.078 44.096 201.035 42.112 201.718 39.424L206.646 20.864C207.115 19.2 207.179 18.048 206.838 17.408C206.539 16.768 206.091 16.448 205.494 16.448C204.555 16.448 203.489 17.0453 202.294 18.24C201.099 19.392 199.883 20.992 198.646 23.04C197.409 25.0453 196.193 27.328 194.998 29.888C193.803 32.448 192.715 35.1146 191.734 37.888C190.795 40.6613 190.027 43.3706 189.43 46.016C189.302 46.4853 189.003 46.72 188.534 46.72H185.91C185.313 46.72 185.078 46.4426 185.206 45.888ZM220.885 47.296C218.624 47.296 216.81 46.4213 215.445 44.672C214.08 42.88 213.397 40.3626 213.397 37.12C213.397 34.304 213.888 31.5093 214.869 28.736C215.893 25.9626 217.216 23.4453 218.837 21.184C220.458 18.9226 222.229 17.1093 224.149 15.744C226.112 14.3786 228.01 13.696 229.845 13.696C231.85 13.696 233.28 14.1866 234.133 15.168C235.029 16.1066 235.477 17.3866 235.477 19.008C235.477 20.928 234.794 22.848 233.429 24.768C232.106 26.6453 230.229 28.3306 227.797 29.824C225.408 31.3173 222.592 32.4266 219.349 33.152C218.41 33.3653 217.92 33.8986 217.877 34.752C217.834 35.0506 217.813 35.3706 217.813 35.712C217.813 36.0106 217.813 36.3093 217.813 36.608C217.813 39.04 218.218 40.8746 219.029 42.112C219.882 43.3493 221.034 43.968 222.485 43.968C224.106 43.968 225.664 43.2213 227.157 41.728C228.693 40.2346 229.973 38.1226 230.997 35.392C231.125 35.008 231.381 34.816 231.765 34.816C232.021 34.816 232.17 34.9226 232.213 35.136C232.298 35.3493 232.298 35.6053 232.213 35.904C230.848 39.6586 229.184 42.496 227.221 44.416C225.301 46.336 223.189 47.296 220.885 47.296ZM218.517 30.72C218.432 31.0186 218.474 31.2746 218.645 31.488C218.858 31.6586 219.114 31.7013 219.413 31.616C222.058 30.8906 224.277 29.8026 226.069 28.352C227.861 26.8586 229.205 25.1946 230.101 23.36C231.04 21.5253 231.509 19.7333 231.509 17.984C231.509 16.192 230.805 15.296 229.397 15.296C228.16 15.296 226.816 16.0213 225.365 17.472C223.914 18.9226 222.57 20.8213 221.333 23.168C220.096 25.5146 219.157 28.032 218.517 30.72ZM239.743 47.296C238.335 47.296 236.842 47.0826 235.263 46.656C233.727 46.2293 232.554 45.696 231.743 45.056C231.444 44.8 231.316 44.416 231.359 43.904L232.767 35.52C232.852 34.9653 233.108 34.688 233.535 34.688C234.004 34.688 234.239 34.9866 234.239 35.584L234.367 38.656C234.452 41.088 235.028 42.88 236.095 44.032C237.204 45.1413 238.548 45.696 240.127 45.696C241.492 45.696 242.666 45.2693 243.647 44.416C244.628 43.52 245.119 42.2186 245.119 40.512C245.119 39.5306 244.97 38.6346 244.671 37.824C244.372 36.9706 243.903 36.0746 243.263 35.136C242.623 34.1546 241.748 32.9813 240.639 31.616C239.188 29.7386 238.1 28.1386 237.375 26.816C236.692 25.4506 236.351 24.0426 236.351 22.592C236.351 19.904 237.183 17.7493 238.847 16.128C240.554 14.5066 242.708 13.696 245.311 13.696C246.463 13.696 247.572 13.8666 248.639 14.208C249.748 14.5493 250.666 15.0613 251.391 15.744C251.775 16.0426 251.903 16.4266 251.775 16.896L249.983 25.472C249.855 26.0266 249.599 26.304 249.215 26.304C248.831 26.304 248.596 26.0053 248.511 25.408L248.319 22.336C248.148 19.776 247.807 17.9413 247.295 16.832C246.826 15.7226 245.823 15.168 244.287 15.168C242.922 15.168 241.812 15.6373 240.959 16.576C240.106 17.5146 239.679 18.6453 239.679 19.968C239.679 21.376 240.063 22.6773 240.831 23.872C241.599 25.024 242.644 26.496 243.967 28.288C245.716 30.592 246.89 32.4266 247.487 33.792C248.127 35.1573 248.447 36.544 248.447 37.952C248.447 39.744 248.042 41.344 247.231 42.752C246.463 44.16 245.418 45.2693 244.095 46.08C242.772 46.8906 241.322 47.296 239.743 47.296Z" fill="white"/>
</svg>
