<svg width="485" height="48" viewBox="0 0 485 48" fill="none" xmlns="http://www.w3.org/2000/svg">
<path d="M49.536 46.3999H32.384L24.256 32.7039H24L15.872 46.3999H3.30806e-06L15.744 23.1039L1.536 2.3679H18.624L25.28 13.6319H25.536L32.256 2.3679H48.064L33.792 23.1679L49.536 46.3999ZM72.0845 12.6079V21.2479H64.9165V34.1119C64.9165 35.6479 65.1725 36.7786 65.6845 37.5039C66.1965 38.1866 67.1352 38.5279 68.5005 38.5279H72.0845V46.0159C71.0605 46.3572 69.7378 46.6346 68.1165 46.8479C66.4952 47.0612 65.0872 47.1679 63.8925 47.1679C60.1378 47.1679 57.2365 46.4852 55.1885 45.1199C53.1832 43.7546 52.1805 41.4292 52.1805 38.1439V21.2479H47.4445V12.6079H52.6925L55.4445 2.3679H64.9165V12.6079H72.0845ZM94.698 11.7759C95.6793 11.7759 96.554 11.9039 97.322 12.1599C98.09 12.3732 98.474 12.5012 98.474 12.5439V23.2319H94.378C91.7327 23.2319 89.8127 23.9146 88.618 25.2799C87.466 26.6452 86.89 28.6719 86.89 31.3599V46.3999H74.154V12.6079H84.586L85.418 17.7279C86.186 15.7652 87.402 14.2932 89.066 13.3119C90.73 12.2879 92.6073 11.7759 94.698 11.7759ZM117.224 11.8399C123.41 11.8399 128.125 13.2906 131.368 16.1919C134.653 19.0932 136.296 23.5306 136.296 29.5039V31.6799H110.952C110.952 34.1119 111.485 35.9466 112.552 37.1839C113.661 38.4212 115.389 39.0399 117.736 39.0399C119.869 39.0399 121.426 38.5919 122.408 37.6959C123.432 36.7999 123.944 35.6052 123.944 34.1119H136.296C136.296 38.2079 134.738 41.4079 131.624 43.7119C128.509 46.0159 123.965 47.1679 117.992 47.1679C111.72 47.1679 106.856 45.7172 103.4 42.8159C99.9435 39.8719 98.2155 35.4346 98.2155 29.5039C98.2155 23.7012 99.9008 19.3066 103.272 16.3199C106.642 13.3332 111.293 11.8399 117.224 11.8399ZM117.736 19.9679C113.725 19.9679 111.485 21.8666 111.016 25.6639H123.432C123.432 23.9146 122.92 22.5279 121.896 21.5039C120.914 20.4799 119.528 19.9679 117.736 19.9679ZM183.463 11.8399C187.303 11.8399 190.183 12.9492 192.103 15.1679C194.023 17.3439 194.983 20.4586 194.983 24.5119V46.3999H182.247V26.0479C182.247 24.5972 181.884 23.4452 181.159 22.5919C180.476 21.6959 179.495 21.2479 178.215 21.2479C176.722 21.2479 175.506 21.7599 174.567 22.7839C173.628 23.8079 173.159 25.0666 173.159 26.5599V46.3999H160.423V26.0479C160.423 24.5972 160.06 23.4452 159.335 22.5919C158.652 21.6959 157.671 21.2479 156.391 21.2479C154.898 21.2479 153.682 21.7599 152.743 22.7839C151.804 23.8079 151.335 25.0666 151.335 26.5599V46.3999H138.599V12.6079H149.031L149.863 17.6639C151.143 15.8719 152.828 14.4639 154.919 13.4399C157.052 12.3732 159.292 11.8399 161.639 11.8399C166.716 11.8399 170.13 13.7812 171.879 17.6639C173.202 15.8719 174.887 14.4639 176.935 13.4399C179.026 12.3732 181.202 11.8399 183.463 11.8399ZM216.231 11.8399C222.418 11.8399 227.132 13.2906 230.375 16.1919C233.66 19.0932 235.303 23.5306 235.303 29.5039V31.6799H209.959C209.959 34.1119 210.492 35.9466 211.559 37.1839C212.668 38.4212 214.396 39.0399 216.743 39.0399C218.876 39.0399 220.434 38.5919 221.415 37.6959C222.439 36.7999 222.951 35.6052 222.951 34.1119H235.303C235.303 38.2079 233.746 41.4079 230.631 43.7119C227.516 46.0159 222.972 47.1679 216.999 47.1679C210.727 47.1679 205.863 45.7172 202.407 42.8159C198.951 39.8719 197.223 35.4346 197.223 29.5039C197.223 23.7012 198.908 19.3066 202.279 16.3199C205.65 13.3332 210.3 11.8399 216.231 11.8399ZM216.743 19.9679C212.732 19.9679 210.492 21.8666 210.023 25.6639H222.439C222.439 23.9146 221.927 22.5279 220.903 21.5039C219.922 20.4799 218.535 19.9679 216.743 19.9679ZM278.119 1.5999C282.343 1.5999 286.14 2.2399 289.511 3.5199C292.882 4.7999 295.548 6.69857 297.511 9.2159C299.516 11.6906 300.519 14.7199 300.519 18.3039H287.015C287.015 16.4692 286.204 14.9972 284.583 13.8879C282.962 12.7359 280.999 12.1599 278.695 12.1599C275.367 12.1599 272.85 13.0559 271.143 14.8479C269.436 16.5972 268.583 19.0932 268.583 22.3359V26.4319C268.583 29.6746 269.436 32.1919 271.143 33.9839C272.85 35.7332 275.367 36.6079 278.695 36.6079C280.999 36.6079 282.962 36.0746 284.583 35.0079C286.204 33.8986 287.015 32.4906 287.015 30.7839H277.031V21.8239H300.519V46.3999H293.223L291.815 42.0479C287.804 45.4612 282.556 47.1679 276.071 47.1679C268.775 47.1679 263.292 45.2692 259.623 41.4719C255.954 37.6319 254.119 31.9359 254.119 24.3839C254.119 16.9172 256.188 11.2639 260.327 7.4239C264.508 3.54123 270.439 1.5999 278.119 1.5999ZM325.096 11.7759C326.077 11.7759 326.952 11.9039 327.72 12.1599C328.488 12.3732 328.872 12.5012 328.872 12.5439V23.2319H324.776C322.13 23.2319 320.21 23.9146 319.016 25.2799C317.864 26.6452 317.288 28.6719 317.288 31.3599V46.3999H304.552V12.6079H314.984L315.816 17.7279C316.584 15.7652 317.8 14.2932 319.464 13.3119C321.128 12.2879 323.005 11.7759 325.096 11.7759ZM347.621 11.8399C353.552 11.8399 358.202 13.3546 361.573 16.3839C364.986 19.3706 366.693 23.7439 366.693 29.5039C366.693 35.2639 364.986 39.6586 361.573 42.6879C358.202 45.6746 353.552 47.1679 347.621 47.1679C341.69 47.1679 337.04 45.6746 333.669 42.6879C330.298 39.7012 328.613 35.3066 328.613 29.5039C328.613 23.7012 330.298 19.3066 333.669 16.3199C337.04 13.3332 341.69 11.8399 347.621 11.8399ZM347.621 20.4799C343.44 20.4799 341.349 22.8906 341.349 27.7119V31.3599C341.349 36.1386 343.44 38.5279 347.621 38.5279C351.845 38.5279 353.957 36.1386 353.957 31.3599V27.7119C353.957 22.8906 351.845 20.4799 347.621 20.4799ZM399.616 46.3999L394.368 27.5839H394.112L388.8 46.3999H376.384L364.032 12.6079H377.728L382.848 32.5759H383.296L388.608 12.6079H401.28L406.4 32.5759H406.848L412.032 12.6079H424.448L412.032 46.3999H399.616ZM446.997 12.6079V21.2479H439.829V34.1119C439.829 35.6479 440.085 36.7786 440.597 37.5039C441.109 38.1866 442.048 38.5279 443.413 38.5279H446.997V46.0159C445.973 46.3572 444.65 46.6346 443.029 46.8479C441.408 47.0612 440 47.1679 438.805 47.1679C435.05 47.1679 432.149 46.4852 430.101 45.1199C428.096 43.7546 427.093 41.4292 427.093 38.1439V21.2479H422.357V12.6079H427.605L430.357 2.3679H439.829V12.6079H446.997ZM461.803 16.1279C463.168 14.7626 464.768 13.7172 466.603 12.9919C468.437 12.2239 470.357 11.8399 472.363 11.8399C476.288 11.8399 479.232 12.9279 481.195 15.1039C483.157 17.2799 484.139 20.4159 484.139 24.5119V46.3999H471.403V26.0479C471.403 24.5972 471.019 23.4452 470.251 22.5919C469.525 21.6959 468.48 21.2479 467.115 21.2479C465.536 21.2479 464.256 21.7599 463.275 22.7839C462.293 23.8079 461.803 25.0666 461.803 26.5599V46.3999H449.067V-9.91821e-05H461.803V16.1279Z" fill="black"/>
</svg>
